<?xml version="1.0" encoding="UTF-8"?>
<svg id="Layer_1" data-name="Layer 1" xmlns="http://www.w3.org/2000/svg" viewBox="0 0 211.49 845.95">
  <defs>
    <style>
      .cls-1 {
        fill: #f9d36f;
      }

      .cls-2 {
        fill: #1a3531;
      }
    </style>
  </defs>
  <g>
    <path class="cls-2" d="M7.59,7.59c-2.71,12.83-5.03,26.34-5.17,39.29,0,1.19,0,2.37,.03,3.54L26.44,26.44,7.59,7.59Z"/>
    <path class="cls-1" d="M2.42,46.88H0v5.99l2.45-2.45c-.03-1.18-.04-2.36-.03-3.54Z"/>
    <path class="cls-1" d="M7.59,7.59L0,0V46.88H2.42c.15-12.95,2.47-26.46,5.17-39.29Z"/>
    <path class="cls-2" d="M50.42,2.45c-1.18-.03-2.36-.04-3.54-.03-12.95,.15-26.46,2.47-39.29,5.17L26.44,26.44,50.42,2.45Z"/>
    <path class="cls-1" d="M50.42,2.45l2.45-2.45h-5.99V2.42c1.19,0,2.37,0,3.54,.03Z"/>
    <path class="cls-1" d="M46.88,2.42V0H0L7.59,7.59c12.83-2.71,26.34-5.03,39.29-5.17Z"/>
    <path class="cls-2" d="M103.29,50.42c.03-1.18,.04-2.36,.03-3.54-.15-12.95-2.47-26.46-5.17-39.29l-18.84,18.84,23.99,23.99Z"/>
    <path class="cls-1" d="M103.29,50.42l2.45,2.45v-5.99h-2.42c0,1.19,0,2.37-.03,3.54Z"/>
    <path class="cls-1" d="M103.33,46.88h2.42V0l-7.59,7.59c2.71,12.83,5.03,26.34,5.17,39.29Z"/>
    <path class="cls-2" d="M98.15,7.59c-12.83-2.71-26.34-5.03-39.29-5.17-1.19,0-2.37,0-3.54,.03l23.99,23.99L98.15,7.59Z"/>
    <path class="cls-1" d="M58.86,2.42V0h-5.99l2.45,2.45c1.18-.03,2.36-.04,3.54-.03Z"/>
    <path class="cls-1" d="M98.15,7.59l7.59-7.59H58.86V2.42c12.95,.15,26.46,2.47,39.29,5.17Z"/>
    <path class="cls-2" d="M79.31,26.44L55.32,2.45c-.03,1.18-.04,2.36-.03,3.54,.15,12.95,2.47,26.46,5.17,39.29l18.84-18.84Z"/>
    <path class="cls-2" d="M45.28,45.28c2.71-12.83,5.03-26.34,5.17-39.29,0-1.19,0-2.37-.03-3.54L26.44,26.44l18.84,18.84Z"/>
    <path class="cls-1" d="M50.45,5.99h4.84c0-1.19,0-2.37,.03-3.54l-2.45-2.45-2.45,2.45c.03,1.18,.04,2.36,.03,3.54Z"/>
    <path class="cls-1" d="M52.87,52.87l7.59-7.59c-2.71-12.83-5.03-26.34-5.17-39.29h-4.84c-.15,12.95-2.47,26.46-5.17,39.29l7.59,7.59Z"/>
    <path class="cls-2" d="M26.44,79.31l23.99,23.99c.03-1.18,.04-2.36,.03-3.54-.15-12.95-2.47-26.46-5.17-39.29l-18.84,18.84Z"/>
    <path class="cls-2" d="M60.46,60.46c-2.71,12.83-5.03,26.34-5.17,39.29,0,1.19,0,2.37,.03,3.54l23.99-23.99-18.84-18.84Z"/>
    <path class="cls-1" d="M55.29,99.75h-4.84c0,1.19,0,2.37-.03,3.54l2.45,2.45,2.45-2.45c-.03-1.18-.04-2.36-.03-3.54Z"/>
    <path class="cls-1" d="M52.87,52.87l-7.59,7.59c2.71,12.83,5.03,26.34,5.17,39.29h4.84c.15-12.95,2.47-26.46,5.17-39.29l-7.59-7.59Z"/>
    <path class="cls-2" d="M26.44,26.44L2.45,50.42c1.18,.03,2.36,.04,3.54,.03,12.95-.15,26.46-2.47,39.29-5.17L26.44,26.44Z"/>
    <path class="cls-2" d="M45.28,60.46c-12.83-2.71-26.34-5.03-39.29-5.17-1.19,0-2.37,0-3.54,.03l23.99,23.99,18.84-18.84Z"/>
    <path class="cls-1" d="M5.99,55.29v-4.84c-1.19,0-2.37,0-3.54-.03l-2.45,2.45,2.45,2.45c1.18-.03,2.36-.04,3.54-.03Z"/>
    <path class="cls-1" d="M52.87,52.87l-7.59-7.59c-12.83,2.71-26.34,5.03-39.29,5.17v4.84c12.95,.15,26.46,2.47,39.29,5.17l7.59-7.59Z"/>
    <path class="cls-2" d="M79.31,79.31l23.99-23.99c-1.18-.03-2.36-.04-3.54-.03-12.95,.15-26.46,2.47-39.29,5.17l18.84,18.84Z"/>
    <path class="cls-2" d="M60.46,45.28c12.83,2.71,26.34,5.03,39.29,5.17,1.19,0,2.37,0,3.54-.03l-23.99-23.99-18.84,18.84Z"/>
    <path class="cls-1" d="M99.75,50.45v4.84c1.19,0,2.37,0,3.54,.03l2.45-2.45-2.45-2.45c-1.18,.03-2.36,.04-3.54,.03Z"/>
    <path class="cls-1" d="M52.87,52.87l7.59,7.59c12.83-2.71,26.34-5.03,39.29-5.17v-4.84c-12.95-.15-26.46-2.47-39.29-5.17l-7.59,7.59Z"/>
    <path class="cls-2" d="M2.45,55.32c-.03,1.18-.04,2.36-.03,3.54,.15,12.95,2.47,26.46,5.17,39.29l18.84-18.84L2.45,55.32Z"/>
    <path class="cls-1" d="M2.45,55.32l-2.45-2.45v5.99H2.42c0-1.19,0-2.37,.03-3.54Z"/>
    <path class="cls-1" d="M2.42,58.86H0v46.88l7.59-7.59c-2.71-12.83-5.03-26.34-5.17-39.29Z"/>
    <path class="cls-2" d="M7.59,98.15c12.83,2.71,26.34,5.03,39.29,5.17,1.19,0,2.37,0,3.54-.03l-23.99-23.99L7.59,98.15Z"/>
    <path class="cls-1" d="M46.88,103.33v2.42h5.99l-2.45-2.45c-1.18,.03-2.36,.04-3.54,.03Z"/>
    <path class="cls-1" d="M7.59,98.15l-7.59,7.59H46.88v-2.42c-12.95-.15-26.46-2.47-39.29-5.17Z"/>
    <path class="cls-2" d="M98.15,98.15c2.71-12.83,5.03-26.34,5.17-39.29,0-1.19,0-2.37-.03-3.54l-23.99,23.99,18.84,18.84Z"/>
    <path class="cls-1" d="M103.33,58.86h2.42v-5.99l-2.45,2.45c.03,1.18,.04,2.36,.03,3.54Z"/>
    <path class="cls-1" d="M98.15,98.15l7.59,7.59V58.86h-2.42c-.15,12.95-2.47,26.46-5.17,39.29Z"/>
    <path class="cls-2" d="M79.31,79.31l-23.99,23.99c1.18,.03,2.36,.04,3.54,.03,12.95-.15,26.46-2.47,39.29-5.17l-18.84-18.84Z"/>
    <path class="cls-1" d="M58.86,103.33c-1.19,0-2.37,0-3.54-.03l-2.45,2.45h5.99v-2.42Z"/>
    <path class="cls-1" d="M58.86,103.33v2.42h46.88l-7.59-7.59c-12.83,2.71-26.34,5.03-39.29,5.17Z"/>
  </g>
  <g>
    <path class="cls-2" d="M113.34,7.59c-2.71,12.83-5.03,26.34-5.17,39.29,0,1.19,0,2.37,.03,3.54l23.99-23.99L113.34,7.59Z"/>
    <path class="cls-1" d="M108.16,46.88h-2.42v5.99l2.45-2.45c-.03-1.18-.04-2.36-.03-3.54Z"/>
    <path class="cls-1" d="M113.34,7.59l-7.59-7.59V46.88h2.42c.15-12.95,2.47-26.46,5.17-39.29Z"/>
    <path class="cls-2" d="M156.17,2.45c-1.18-.03-2.36-.04-3.54-.03-12.95,.15-26.46,2.47-39.29,5.17l18.84,18.84L156.17,2.45Z"/>
    <path class="cls-1" d="M156.17,2.45l2.45-2.45h-5.99V2.42c1.19,0,2.37,0,3.54,.03Z"/>
    <path class="cls-1" d="M152.62,2.42V0h-46.88l7.59,7.59c12.83-2.71,26.34-5.03,39.29-5.17Z"/>
    <path class="cls-2" d="M209.04,50.42c.03-1.18,.04-2.36,.03-3.54-.15-12.95-2.47-26.46-5.17-39.29l-18.84,18.84,23.99,23.99Z"/>
    <path class="cls-1" d="M209.04,50.42l2.45,2.45v-5.99h-2.42c0,1.19,0,2.37-.03,3.54Z"/>
    <path class="cls-1" d="M209.07,46.88h2.42V0l-7.59,7.59c2.71,12.83,5.03,26.34,5.17,39.29Z"/>
    <path class="cls-2" d="M203.9,7.59c-12.83-2.71-26.34-5.03-39.29-5.17-1.19,0-2.37,0-3.54,.03l23.99,23.99,18.84-18.84Z"/>
    <path class="cls-1" d="M164.61,2.42V0h-5.99l2.45,2.45c1.18-.03,2.36-.04,3.54-.03Z"/>
    <path class="cls-1" d="M203.9,7.59l7.59-7.59h-46.88V2.42c12.95,.15,26.46,2.47,39.29,5.17Z"/>
    <path class="cls-2" d="M185.05,26.44L161.07,2.45c-.03,1.18-.04,2.36-.03,3.54,.15,12.95,2.47,26.46,5.17,39.29l18.84-18.84Z"/>
    <path class="cls-2" d="M151.02,45.28c2.71-12.83,5.03-26.34,5.17-39.29,0-1.19,0-2.37-.03-3.54l-23.99,23.99,18.84,18.84Z"/>
    <path class="cls-1" d="M156.2,5.99h4.84c0-1.19,0-2.37,.03-3.54l-2.45-2.45-2.45,2.45c.03,1.18,.04,2.36,.03,3.54Z"/>
    <path class="cls-1" d="M158.62,52.87l7.59-7.59c-2.71-12.83-5.03-26.34-5.17-39.29h-4.84c-.15,12.95-2.47,26.46-5.17,39.29l7.59,7.59Z"/>
    <path class="cls-2" d="M132.18,79.31l23.99,23.99c.03-1.18,.04-2.36,.03-3.54-.15-12.95-2.47-26.46-5.17-39.29l-18.84,18.84Z"/>
    <path class="cls-2" d="M166.21,60.46c-2.71,12.83-5.03,26.34-5.17,39.29,0,1.19,0,2.37,.03,3.54l23.99-23.99-18.84-18.84Z"/>
    <path class="cls-1" d="M161.04,99.75h-4.84c0,1.19,0,2.37-.03,3.54l2.45,2.45,2.45-2.45c-.03-1.18-.04-2.36-.03-3.54Z"/>
    <path class="cls-1" d="M158.62,52.87l-7.59,7.59c2.71,12.83,5.03,26.34,5.17,39.29h4.84c.15-12.95,2.47-26.46,5.17-39.29l-7.59-7.59Z"/>
    <path class="cls-2" d="M132.18,26.44l-23.99,23.99c1.18,.03,2.36,.04,3.54,.03,12.95-.15,26.46-2.47,39.29-5.17l-18.84-18.84Z"/>
    <path class="cls-2" d="M151.02,60.46c-12.83-2.71-26.34-5.03-39.29-5.17-1.19,0-2.37,0-3.54,.03l23.99,23.99,18.84-18.84Z"/>
    <path class="cls-1" d="M111.74,55.29v-4.84c-1.19,0-2.37,0-3.54-.03l-2.45,2.45,2.45,2.45c1.18-.03,2.36-.04,3.54-.03Z"/>
    <path class="cls-1" d="M158.62,52.87l-7.59-7.59c-12.83,2.71-26.34,5.03-39.29,5.17v4.84c12.95,.15,26.46,2.47,39.29,5.17l7.59-7.59Z"/>
    <path class="cls-2" d="M185.05,79.31l23.99-23.99c-1.18-.03-2.36-.04-3.54-.03-12.95,.15-26.46,2.47-39.29,5.17l18.84,18.84Z"/>
    <path class="cls-2" d="M166.21,45.28c12.83,2.71,26.34,5.03,39.29,5.17,1.19,0,2.37,0,3.54-.03l-23.99-23.99-18.84,18.84Z"/>
    <path class="cls-1" d="M205.5,50.45v4.84c1.19,0,2.37,0,3.54,.03l2.45-2.45-2.45-2.45c-1.18,.03-2.36,.04-3.54,.03Z"/>
    <path class="cls-1" d="M158.62,52.87l7.59,7.59c12.83-2.71,26.34-5.03,39.29-5.17v-4.84c-12.95-.15-26.46-2.47-39.29-5.17l-7.59,7.59Z"/>
    <path class="cls-2" d="M108.19,55.32c-.03,1.18-.04,2.36-.03,3.54,.15,12.95,2.47,26.46,5.17,39.29l18.84-18.84-23.99-23.99Z"/>
    <path class="cls-1" d="M108.19,55.32l-2.45-2.45v5.99h2.42c0-1.19,0-2.37,.03-3.54Z"/>
    <path class="cls-1" d="M108.16,58.86h-2.42v46.88l7.59-7.59c-2.71-12.83-5.03-26.34-5.17-39.29Z"/>
    <path class="cls-2" d="M113.34,98.15c12.83,2.71,26.34,5.03,39.29,5.17,1.19,0,2.37,0,3.54-.03l-23.99-23.99-18.84,18.84Z"/>
    <path class="cls-1" d="M152.62,103.33v2.42h5.99l-2.45-2.45c-1.18,.03-2.36,.04-3.54,.03Z"/>
    <path class="cls-1" d="M113.34,98.15l-7.59,7.59h46.88v-2.42c-12.95-.15-26.46-2.47-39.29-5.17Z"/>
    <path class="cls-2" d="M203.9,98.15c2.71-12.83,5.03-26.34,5.17-39.29,0-1.19,0-2.37-.03-3.54l-23.99,23.99,18.84,18.84Z"/>
    <path class="cls-1" d="M209.07,58.86h2.42v-5.99l-2.45,2.45c.03,1.18,.04,2.36,.03,3.54Z"/>
    <path class="cls-1" d="M203.9,98.15l7.59,7.59V58.86h-2.42c-.15,12.95-2.47,26.46-5.17,39.29Z"/>
    <path class="cls-2" d="M185.05,79.31l-23.99,23.99c1.18,.03,2.36,.04,3.54,.03,12.95-.15,26.46-2.47,39.29-5.17l-18.84-18.84Z"/>
    <path class="cls-1" d="M164.61,103.33c-1.19,0-2.37,0-3.54-.03l-2.45,2.45h5.99v-2.42Z"/>
    <path class="cls-1" d="M164.61,103.33v2.42h46.88l-7.59-7.59c-12.83,2.71-26.34,5.03-39.29,5.17Z"/>
  </g>
  <g>
    <path class="cls-2" d="M7.59,113.34c-2.71,12.83-5.03,26.34-5.17,39.29,0,1.19,0,2.37,.03,3.54l23.99-23.99L7.59,113.34Z"/>
    <path class="cls-1" d="M2.42,152.62H0v5.99l2.45-2.45c-.03-1.18-.04-2.36-.03-3.54Z"/>
    <path class="cls-1" d="M7.59,113.34l-7.59-7.59v46.88H2.42c.15-12.95,2.47-26.46,5.17-39.29Z"/>
    <path class="cls-2" d="M50.42,108.19c-1.18-.03-2.36-.04-3.54-.03-12.95,.15-26.46,2.47-39.29,5.17l18.84,18.84,23.99-23.99Z"/>
    <path class="cls-1" d="M50.42,108.19l2.45-2.45h-5.99v2.42c1.19,0,2.37,0,3.54,.03Z"/>
    <path class="cls-1" d="M46.88,108.16v-2.42H0l7.59,7.59c12.83-2.71,26.34-5.03,39.29-5.17Z"/>
    <path class="cls-2" d="M103.29,156.17c.03-1.18,.04-2.36,.03-3.54-.15-12.95-2.47-26.46-5.17-39.29l-18.84,18.84,23.99,23.99Z"/>
    <path class="cls-1" d="M103.29,156.17l2.45,2.45v-5.99h-2.42c0,1.19,0,2.37-.03,3.54Z"/>
    <path class="cls-1" d="M103.33,152.62h2.42v-46.88l-7.59,7.59c2.71,12.83,5.03,26.34,5.17,39.29Z"/>
    <path class="cls-2" d="M98.15,113.34c-12.83-2.71-26.34-5.03-39.29-5.17-1.19,0-2.37,0-3.54,.03l23.99,23.99,18.84-18.84Z"/>
    <path class="cls-1" d="M58.86,108.16v-2.42h-5.99l2.45,2.45c1.18-.03,2.36-.04,3.54-.03Z"/>
    <path class="cls-1" d="M98.15,113.34l7.59-7.59H58.86v2.42c12.95,.15,26.46,2.47,39.29,5.17Z"/>
    <path class="cls-2" d="M79.31,132.18l-23.99-23.99c-.03,1.18-.04,2.36-.03,3.54,.15,12.95,2.47,26.46,5.17,39.29l18.84-18.84Z"/>
    <path class="cls-2" d="M45.28,151.02c2.71-12.83,5.03-26.34,5.17-39.29,0-1.19,0-2.37-.03-3.54l-23.99,23.99,18.84,18.84Z"/>
    <path class="cls-1" d="M50.45,111.74h4.84c0-1.19,0-2.37,.03-3.54l-2.45-2.45-2.45,2.45c.03,1.18,.04,2.36,.03,3.54Z"/>
    <path class="cls-1" d="M52.87,158.62l7.59-7.59c-2.71-12.83-5.03-26.34-5.17-39.29h-4.84c-.15,12.95-2.47,26.46-5.17,39.29l7.59,7.59Z"/>
    <path class="cls-2" d="M26.44,185.05l23.99,23.99c.03-1.18,.04-2.36,.03-3.54-.15-12.95-2.47-26.46-5.17-39.29l-18.84,18.84Z"/>
    <path class="cls-2" d="M60.46,166.21c-2.71,12.83-5.03,26.34-5.17,39.29,0,1.19,0,2.37,.03,3.54l23.99-23.99-18.84-18.84Z"/>
    <path class="cls-1" d="M55.29,205.5h-4.84c0,1.19,0,2.37-.03,3.54l2.45,2.45,2.45-2.45c-.03-1.18-.04-2.36-.03-3.54Z"/>
    <path class="cls-1" d="M52.87,158.62l-7.59,7.59c2.71,12.83,5.03,26.34,5.17,39.29h4.84c.15-12.95,2.47-26.46,5.17-39.29l-7.59-7.59Z"/>
    <path class="cls-2" d="M26.44,132.18L2.45,156.17c1.18,.03,2.36,.04,3.54,.03,12.95-.15,26.46-2.47,39.29-5.17l-18.84-18.84Z"/>
    <path class="cls-2" d="M45.28,166.21c-12.83-2.71-26.34-5.03-39.29-5.17-1.19,0-2.37,0-3.54,.03l23.99,23.99,18.84-18.84Z"/>
    <path class="cls-1" d="M5.99,161.04v-4.84c-1.19,0-2.37,0-3.54-.03l-2.45,2.45,2.45,2.45c1.18-.03,2.36-.04,3.54-.03Z"/>
    <path class="cls-1" d="M52.87,158.62l-7.59-7.59c-12.83,2.71-26.34,5.03-39.29,5.17v4.84c12.95,.15,26.46,2.47,39.29,5.17l7.59-7.59Z"/>
    <path class="cls-2" d="M79.31,185.05l23.99-23.99c-1.18-.03-2.36-.04-3.54-.03-12.95,.15-26.46,2.47-39.29,5.17l18.84,18.84Z"/>
    <path class="cls-2" d="M60.46,151.02c12.83,2.71,26.34,5.03,39.29,5.17,1.19,0,2.37,0,3.54-.03l-23.99-23.99-18.84,18.84Z"/>
    <path class="cls-1" d="M99.75,156.2v4.84c1.19,0,2.37,0,3.54,.03l2.45-2.45-2.45-2.45c-1.18,.03-2.36,.04-3.54,.03Z"/>
    <path class="cls-1" d="M52.87,158.62l7.59,7.59c12.83-2.71,26.34-5.03,39.29-5.17v-4.84c-12.95-.15-26.46-2.47-39.29-5.17l-7.59,7.59Z"/>
    <path class="cls-2" d="M2.45,161.07c-.03,1.18-.04,2.36-.03,3.54,.15,12.95,2.47,26.46,5.17,39.29l18.84-18.84L2.45,161.07Z"/>
    <path class="cls-1" d="M2.45,161.07l-2.45-2.45v5.99H2.42c0-1.19,0-2.37,.03-3.54Z"/>
    <path class="cls-1" d="M2.42,164.61H0v46.88l7.59-7.59c-2.71-12.83-5.03-26.34-5.17-39.29Z"/>
    <path class="cls-2" d="M7.59,203.9c12.83,2.71,26.34,5.03,39.29,5.17,1.19,0,2.37,0,3.54-.03l-23.99-23.99-18.84,18.84Z"/>
    <path class="cls-1" d="M46.88,209.07v2.42h5.99l-2.45-2.45c-1.18,.03-2.36,.04-3.54,.03Z"/>
    <path class="cls-1" d="M7.59,203.9l-7.59,7.59H46.88v-2.42c-12.95-.15-26.46-2.47-39.29-5.17Z"/>
    <path class="cls-2" d="M98.15,203.9c2.71-12.83,5.03-26.34,5.17-39.29,0-1.19,0-2.37-.03-3.54l-23.99,23.99,18.84,18.84Z"/>
    <path class="cls-1" d="M103.33,164.61h2.42v-5.99l-2.45,2.45c.03,1.18,.04,2.36,.03,3.54Z"/>
    <path class="cls-1" d="M98.15,203.9l7.59,7.59v-46.88h-2.42c-.15,12.95-2.47,26.46-5.17,39.29Z"/>
    <path class="cls-2" d="M79.31,185.05l-23.99,23.99c1.18,.03,2.36,.04,3.54,.03,12.95-.15,26.46-2.47,39.29-5.17l-18.84-18.84Z"/>
    <path class="cls-1" d="M58.86,209.07c-1.19,0-2.37,0-3.54-.03l-2.45,2.45h5.99v-2.42Z"/>
    <path class="cls-1" d="M58.86,209.07v2.42h46.88l-7.59-7.59c-12.83,2.71-26.34,5.03-39.29,5.17Z"/>
  </g>
  <g>
    <path class="cls-2" d="M113.34,113.34c-2.71,12.83-5.03,26.34-5.17,39.29,0,1.19,0,2.37,.03,3.54l23.99-23.99-18.84-18.84Z"/>
    <path class="cls-1" d="M108.16,152.62h-2.42v5.99l2.45-2.45c-.03-1.18-.04-2.36-.03-3.54Z"/>
    <path class="cls-1" d="M113.34,113.34l-7.59-7.59v46.88h2.42c.15-12.95,2.47-26.46,5.17-39.29Z"/>
    <path class="cls-2" d="M156.17,108.19c-1.18-.03-2.36-.04-3.54-.03-12.95,.15-26.46,2.47-39.29,5.17l18.84,18.84,23.99-23.99Z"/>
    <path class="cls-1" d="M156.17,108.19l2.45-2.45h-5.99v2.42c1.19,0,2.37,0,3.54,.03Z"/>
    <path class="cls-1" d="M152.62,108.16v-2.42h-46.88l7.59,7.59c12.83-2.71,26.34-5.03,39.29-5.17Z"/>
    <path class="cls-2" d="M209.04,156.17c.03-1.18,.04-2.36,.03-3.54-.15-12.95-2.47-26.46-5.17-39.29l-18.84,18.84,23.99,23.99Z"/>
    <path class="cls-1" d="M209.04,156.17l2.45,2.45v-5.99h-2.42c0,1.19,0,2.37-.03,3.54Z"/>
    <path class="cls-1" d="M209.07,152.62h2.42v-46.88l-7.59,7.59c2.71,12.83,5.03,26.34,5.17,39.29Z"/>
    <path class="cls-2" d="M203.9,113.34c-12.83-2.71-26.34-5.03-39.29-5.17-1.19,0-2.37,0-3.54,.03l23.99,23.99,18.84-18.84Z"/>
    <path class="cls-1" d="M164.61,108.16v-2.42h-5.99l2.45,2.45c1.18-.03,2.36-.04,3.54-.03Z"/>
    <path class="cls-1" d="M203.9,113.34l7.59-7.59h-46.88v2.42c12.95,.15,26.46,2.47,39.29,5.17Z"/>
    <path class="cls-2" d="M185.05,132.18l-23.99-23.99c-.03,1.18-.04,2.36-.03,3.54,.15,12.95,2.47,26.46,5.17,39.29l18.84-18.84Z"/>
    <path class="cls-2" d="M151.02,151.02c2.71-12.83,5.03-26.34,5.17-39.29,0-1.19,0-2.37-.03-3.54l-23.99,23.99,18.84,18.84Z"/>
    <path class="cls-1" d="M156.2,111.74h4.84c0-1.19,0-2.37,.03-3.54l-2.45-2.45-2.45,2.45c.03,1.18,.04,2.36,.03,3.54Z"/>
    <path class="cls-1" d="M158.62,158.62l7.59-7.59c-2.71-12.83-5.03-26.34-5.17-39.29h-4.84c-.15,12.95-2.47,26.46-5.17,39.29l7.59,7.59Z"/>
    <path class="cls-2" d="M132.18,185.05l23.99,23.99c.03-1.18,.04-2.36,.03-3.54-.15-12.95-2.47-26.46-5.17-39.29l-18.84,18.84Z"/>
    <path class="cls-2" d="M166.21,166.21c-2.71,12.83-5.03,26.34-5.17,39.29,0,1.19,0,2.37,.03,3.54l23.99-23.99-18.84-18.84Z"/>
    <path class="cls-1" d="M161.04,205.5h-4.84c0,1.19,0,2.37-.03,3.54l2.45,2.45,2.45-2.45c-.03-1.18-.04-2.36-.03-3.54Z"/>
    <path class="cls-1" d="M158.62,158.62l-7.59,7.59c2.71,12.83,5.03,26.34,5.17,39.29h4.84c.15-12.95,2.47-26.46,5.17-39.29l-7.59-7.59Z"/>
    <path class="cls-2" d="M132.18,132.18l-23.99,23.99c1.18,.03,2.36,.04,3.54,.03,12.95-.15,26.46-2.47,39.29-5.17l-18.84-18.84Z"/>
    <path class="cls-2" d="M151.02,166.21c-12.83-2.71-26.34-5.03-39.29-5.17-1.19,0-2.37,0-3.54,.03l23.99,23.99,18.84-18.84Z"/>
    <path class="cls-1" d="M111.74,161.04v-4.84c-1.19,0-2.37,0-3.54-.03l-2.45,2.45,2.45,2.45c1.18-.03,2.36-.04,3.54-.03Z"/>
    <path class="cls-1" d="M158.62,158.62l-7.59-7.59c-12.83,2.71-26.34,5.03-39.29,5.17v4.84c12.95,.15,26.46,2.47,39.29,5.17l7.59-7.59Z"/>
    <path class="cls-2" d="M185.05,185.05l23.99-23.99c-1.18-.03-2.36-.04-3.54-.03-12.95,.15-26.46,2.47-39.29,5.17l18.84,18.84Z"/>
    <path class="cls-2" d="M166.21,151.02c12.83,2.71,26.34,5.03,39.29,5.17,1.19,0,2.37,0,3.54-.03l-23.99-23.99-18.84,18.84Z"/>
    <path class="cls-1" d="M205.5,156.2v4.84c1.19,0,2.37,0,3.54,.03l2.45-2.45-2.45-2.45c-1.18,.03-2.36,.04-3.54,.03Z"/>
    <path class="cls-1" d="M158.62,158.62l7.59,7.59c12.83-2.71,26.34-5.03,39.29-5.17v-4.84c-12.95-.15-26.46-2.47-39.29-5.17l-7.59,7.59Z"/>
    <path class="cls-2" d="M108.19,161.07c-.03,1.18-.04,2.36-.03,3.54,.15,12.95,2.47,26.46,5.17,39.29l18.84-18.84-23.99-23.99Z"/>
    <path class="cls-1" d="M108.19,161.07l-2.45-2.45v5.99h2.42c0-1.19,0-2.37,.03-3.54Z"/>
    <path class="cls-1" d="M108.16,164.61h-2.42v46.88l7.59-7.59c-2.71-12.83-5.03-26.34-5.17-39.29Z"/>
    <path class="cls-2" d="M113.34,203.9c12.83,2.71,26.34,5.03,39.29,5.17,1.19,0,2.37,0,3.54-.03l-23.99-23.99-18.84,18.84Z"/>
    <path class="cls-1" d="M152.62,209.07v2.42h5.99l-2.45-2.45c-1.18,.03-2.36,.04-3.54,.03Z"/>
    <path class="cls-1" d="M113.34,203.9l-7.59,7.59h46.88v-2.42c-12.95-.15-26.46-2.47-39.29-5.17Z"/>
    <path class="cls-2" d="M203.9,203.9c2.71-12.83,5.03-26.34,5.17-39.29,0-1.19,0-2.37-.03-3.54l-23.99,23.99,18.84,18.84Z"/>
    <path class="cls-1" d="M209.07,164.61h2.42v-5.99l-2.45,2.45c.03,1.18,.04,2.36,.03,3.54Z"/>
    <path class="cls-1" d="M203.9,203.9l7.59,7.59v-46.88h-2.42c-.15,12.95-2.47,26.46-5.17,39.29Z"/>
    <path class="cls-2" d="M185.05,185.05l-23.99,23.99c1.18,.03,2.36,.04,3.54,.03,12.95-.15,26.46-2.47,39.29-5.17l-18.84-18.84Z"/>
    <path class="cls-1" d="M164.61,209.07c-1.19,0-2.37,0-3.54-.03l-2.45,2.45h5.99v-2.42Z"/>
    <path class="cls-1" d="M164.61,209.07v2.42h46.88l-7.59-7.59c-12.83,2.71-26.34,5.03-39.29,5.17Z"/>
  </g>
  <g>
    <path class="cls-2" d="M7.59,219.08c-2.71,12.83-5.03,26.34-5.17,39.29,0,1.19,0,2.37,.03,3.54l23.99-23.99-18.84-18.84Z"/>
    <path class="cls-1" d="M2.42,258.37H0v5.99l2.45-2.45c-.03-1.18-.04-2.36-.03-3.54Z"/>
    <path class="cls-1" d="M7.59,219.08l-7.59-7.59v46.88H2.42c.15-12.95,2.47-26.46,5.17-39.29Z"/>
    <path class="cls-2" d="M50.42,213.94c-1.18-.03-2.36-.04-3.54-.03-12.95,.15-26.46,2.47-39.29,5.17l18.84,18.84,23.99-23.99Z"/>
    <path class="cls-1" d="M50.42,213.94l2.45-2.45h-5.99v2.42c1.19,0,2.37,0,3.54,.03Z"/>
    <path class="cls-1" d="M46.88,213.91v-2.42H0l7.59,7.59c12.83-2.71,26.34-5.03,39.29-5.17Z"/>
    <path class="cls-2" d="M103.29,261.91c.03-1.18,.04-2.36,.03-3.54-.15-12.95-2.47-26.46-5.17-39.29l-18.84,18.84,23.99,23.99Z"/>
    <path class="cls-1" d="M103.29,261.91l2.45,2.45v-5.99h-2.42c0,1.19,0,2.37-.03,3.54Z"/>
    <path class="cls-1" d="M103.33,258.37h2.42v-46.88l-7.59,7.59c2.71,12.83,5.03,26.34,5.17,39.29Z"/>
    <path class="cls-2" d="M98.15,219.08c-12.83-2.71-26.34-5.03-39.29-5.17-1.19,0-2.37,0-3.54,.03l23.99,23.99,18.84-18.84Z"/>
    <path class="cls-1" d="M58.86,213.91v-2.42h-5.99l2.45,2.45c1.18-.03,2.36-.04,3.54-.03Z"/>
    <path class="cls-1" d="M98.15,219.08l7.59-7.59H58.86v2.42c12.95,.15,26.46,2.47,39.29,5.17Z"/>
    <path class="cls-2" d="M79.31,237.92l-23.99-23.99c-.03,1.18-.04,2.36-.03,3.54,.15,12.95,2.47,26.46,5.17,39.29l18.84-18.84Z"/>
    <path class="cls-2" d="M45.28,256.77c2.71-12.83,5.03-26.34,5.17-39.29,0-1.19,0-2.37-.03-3.54l-23.99,23.99,18.84,18.84Z"/>
    <path class="cls-1" d="M50.45,217.48h4.84c0-1.19,0-2.37,.03-3.54l-2.45-2.45-2.45,2.45c.03,1.18,.04,2.36,.03,3.54Z"/>
    <path class="cls-1" d="M52.87,264.36l7.59-7.59c-2.71-12.83-5.03-26.34-5.17-39.29h-4.84c-.15,12.95-2.47,26.46-5.17,39.29l7.59,7.59Z"/>
    <path class="cls-2" d="M26.44,290.8l23.99,23.99c.03-1.18,.04-2.36,.03-3.54-.15-12.95-2.47-26.46-5.17-39.29l-18.84,18.84Z"/>
    <path class="cls-2" d="M60.46,271.95c-2.71,12.83-5.03,26.34-5.17,39.29,0,1.19,0,2.37,.03,3.54l23.99-23.99-18.84-18.84Z"/>
    <path class="cls-1" d="M55.29,311.24h-4.84c0,1.19,0,2.37-.03,3.54l2.45,2.45,2.45-2.45c-.03-1.18-.04-2.36-.03-3.54Z"/>
    <path class="cls-1" d="M52.87,264.36l-7.59,7.59c2.71,12.83,5.03,26.34,5.17,39.29h4.84c.15-12.95,2.47-26.46,5.17-39.29l-7.59-7.59Z"/>
    <path class="cls-2" d="M26.44,237.92l-23.99,23.99c1.18,.03,2.36,.04,3.54,.03,12.95-.15,26.46-2.47,39.29-5.17l-18.84-18.84Z"/>
    <path class="cls-2" d="M45.28,271.95c-12.83-2.71-26.34-5.03-39.29-5.17-1.19,0-2.37,0-3.54,.03l23.99,23.99,18.84-18.84Z"/>
    <path class="cls-1" d="M5.99,266.78v-4.84c-1.19,0-2.37,0-3.54-.03l-2.45,2.45,2.45,2.45c1.18-.03,2.36-.04,3.54-.03Z"/>
    <path class="cls-1" d="M52.87,264.36l-7.59-7.59c-12.83,2.71-26.34,5.03-39.29,5.17v4.84c12.95,.15,26.46,2.47,39.29,5.17l7.59-7.59Z"/>
    <path class="cls-2" d="M79.31,290.8l23.99-23.99c-1.18-.03-2.36-.04-3.54-.03-12.95,.15-26.46,2.47-39.29,5.17l18.84,18.84Z"/>
    <path class="cls-2" d="M60.46,256.77c12.83,2.71,26.34,5.03,39.29,5.17,1.19,0,2.37,0,3.54-.03l-23.99-23.99-18.84,18.84Z"/>
    <path class="cls-1" d="M99.75,261.94v4.84c1.19,0,2.37,0,3.54,.03l2.45-2.45-2.45-2.45c-1.18,.03-2.36,.04-3.54,.03Z"/>
    <path class="cls-1" d="M52.87,264.36l7.59,7.59c12.83-2.71,26.34-5.03,39.29-5.17v-4.84c-12.95-.15-26.46-2.47-39.29-5.17l-7.59,7.59Z"/>
    <path class="cls-2" d="M2.45,266.81c-.03,1.18-.04,2.36-.03,3.54,.15,12.95,2.47,26.46,5.17,39.29l18.84-18.84-23.99-23.99Z"/>
    <path class="cls-1" d="M2.45,266.81l-2.45-2.45v5.99H2.42c0-1.19,0-2.37,.03-3.54Z"/>
    <path class="cls-1" d="M2.42,270.35H0v46.88l7.59-7.59c-2.71-12.83-5.03-26.34-5.17-39.29Z"/>
    <path class="cls-2" d="M7.59,309.64c12.83,2.71,26.34,5.03,39.29,5.17,1.19,0,2.37,0,3.54-.03l-23.99-23.99-18.84,18.84Z"/>
    <path class="cls-1" d="M46.88,314.81v2.42h5.99l-2.45-2.45c-1.18,.03-2.36,.04-3.54,.03Z"/>
    <path class="cls-1" d="M7.59,309.64l-7.59,7.59H46.88v-2.42c-12.95-.15-26.46-2.47-39.29-5.17Z"/>
    <path class="cls-2" d="M98.15,309.64c2.71-12.83,5.03-26.34,5.17-39.29,0-1.19,0-2.37-.03-3.54l-23.99,23.99,18.84,18.84Z"/>
    <path class="cls-1" d="M103.33,270.35h2.42v-5.99l-2.45,2.45c.03,1.18,.04,2.36,.03,3.54Z"/>
    <path class="cls-1" d="M98.15,309.64l7.59,7.59v-46.88h-2.42c-.15,12.95-2.47,26.46-5.17,39.29Z"/>
    <path class="cls-2" d="M79.31,290.8l-23.99,23.99c1.18,.03,2.36,.04,3.54,.03,12.95-.15,26.46-2.47,39.29-5.17l-18.84-18.84Z"/>
    <path class="cls-1" d="M58.86,314.81c-1.19,0-2.37,0-3.54-.03l-2.45,2.45h5.99v-2.42Z"/>
    <path class="cls-1" d="M58.86,314.81v2.42h46.88l-7.59-7.59c-12.83,2.71-26.34,5.03-39.29,5.17Z"/>
  </g>
  <g>
    <path class="cls-2" d="M113.34,219.08c-2.71,12.83-5.03,26.34-5.17,39.29,0,1.19,0,2.37,.03,3.54l23.99-23.99-18.84-18.84Z"/>
    <path class="cls-1" d="M108.16,258.37h-2.42v5.99l2.45-2.45c-.03-1.18-.04-2.36-.03-3.54Z"/>
    <path class="cls-1" d="M113.34,219.08l-7.59-7.59v46.88h2.42c.15-12.95,2.47-26.46,5.17-39.29Z"/>
    <path class="cls-2" d="M156.17,213.94c-1.18-.03-2.36-.04-3.54-.03-12.95,.15-26.46,2.47-39.29,5.17l18.84,18.84,23.99-23.99Z"/>
    <path class="cls-1" d="M156.17,213.94l2.45-2.45h-5.99v2.42c1.19,0,2.37,0,3.54,.03Z"/>
    <path class="cls-1" d="M152.62,213.91v-2.42h-46.88l7.59,7.59c12.83-2.71,26.34-5.03,39.29-5.17Z"/>
    <path class="cls-2" d="M209.04,261.91c.03-1.18,.04-2.36,.03-3.54-.15-12.95-2.47-26.46-5.17-39.29l-18.84,18.84,23.99,23.99Z"/>
    <path class="cls-1" d="M209.04,261.91l2.45,2.45v-5.99h-2.42c0,1.19,0,2.37-.03,3.54Z"/>
    <path class="cls-1" d="M209.07,258.37h2.42v-46.88l-7.59,7.59c2.71,12.83,5.03,26.34,5.17,39.29Z"/>
    <path class="cls-2" d="M203.9,219.08c-12.83-2.71-26.34-5.03-39.29-5.17-1.19,0-2.37,0-3.54,.03l23.99,23.99,18.84-18.84Z"/>
    <path class="cls-1" d="M164.61,213.91v-2.42h-5.99l2.45,2.45c1.18-.03,2.36-.04,3.54-.03Z"/>
    <path class="cls-1" d="M203.9,219.08l7.59-7.59h-46.88v2.42c12.95,.15,26.46,2.47,39.29,5.17Z"/>
    <path class="cls-2" d="M185.05,237.92l-23.99-23.99c-.03,1.18-.04,2.36-.03,3.54,.15,12.95,2.47,26.46,5.17,39.29l18.84-18.84Z"/>
    <path class="cls-2" d="M151.02,256.77c2.71-12.83,5.03-26.34,5.17-39.29,0-1.19,0-2.37-.03-3.54l-23.99,23.99,18.84,18.84Z"/>
    <path class="cls-1" d="M156.2,217.48h4.84c0-1.19,0-2.37,.03-3.54l-2.45-2.45-2.45,2.45c.03,1.18,.04,2.36,.03,3.54Z"/>
    <path class="cls-1" d="M158.62,264.36l7.59-7.59c-2.71-12.83-5.03-26.34-5.17-39.29h-4.84c-.15,12.95-2.47,26.46-5.17,39.29l7.59,7.59Z"/>
    <path class="cls-2" d="M132.18,290.8l23.99,23.99c.03-1.18,.04-2.36,.03-3.54-.15-12.95-2.47-26.46-5.17-39.29l-18.84,18.84Z"/>
    <path class="cls-2" d="M166.21,271.95c-2.71,12.83-5.03,26.34-5.17,39.29,0,1.19,0,2.37,.03,3.54l23.99-23.99-18.84-18.84Z"/>
    <path class="cls-1" d="M161.04,311.24h-4.84c0,1.19,0,2.37-.03,3.54l2.45,2.45,2.45-2.45c-.03-1.18-.04-2.36-.03-3.54Z"/>
    <path class="cls-1" d="M158.62,264.36l-7.59,7.59c2.71,12.83,5.03,26.34,5.17,39.29h4.84c.15-12.95,2.47-26.46,5.17-39.29l-7.59-7.59Z"/>
    <path class="cls-2" d="M132.18,237.92l-23.99,23.99c1.18,.03,2.36,.04,3.54,.03,12.95-.15,26.46-2.47,39.29-5.17l-18.84-18.84Z"/>
    <path class="cls-2" d="M151.02,271.95c-12.83-2.71-26.34-5.03-39.29-5.17-1.19,0-2.37,0-3.54,.03l23.99,23.99,18.84-18.84Z"/>
    <path class="cls-1" d="M111.74,266.78v-4.84c-1.19,0-2.37,0-3.54-.03l-2.45,2.45,2.45,2.45c1.18-.03,2.36-.04,3.54-.03Z"/>
    <path class="cls-1" d="M158.62,264.36l-7.59-7.59c-12.83,2.71-26.34,5.03-39.29,5.17v4.84c12.95,.15,26.46,2.47,39.29,5.17l7.59-7.59Z"/>
    <path class="cls-2" d="M185.05,290.8l23.99-23.99c-1.18-.03-2.36-.04-3.54-.03-12.95,.15-26.46,2.47-39.29,5.17l18.84,18.84Z"/>
    <path class="cls-2" d="M166.21,256.77c12.83,2.71,26.34,5.03,39.29,5.17,1.19,0,2.37,0,3.54-.03l-23.99-23.99-18.84,18.84Z"/>
    <path class="cls-1" d="M205.5,261.94v4.84c1.19,0,2.37,0,3.54,.03l2.45-2.45-2.45-2.45c-1.18,.03-2.36,.04-3.54,.03Z"/>
    <path class="cls-1" d="M158.62,264.36l7.59,7.59c12.83-2.71,26.34-5.03,39.29-5.17v-4.84c-12.95-.15-26.46-2.47-39.29-5.17l-7.59,7.59Z"/>
    <path class="cls-2" d="M108.19,266.81c-.03,1.18-.04,2.36-.03,3.54,.15,12.95,2.47,26.46,5.17,39.29l18.84-18.84-23.99-23.99Z"/>
    <path class="cls-1" d="M108.19,266.81l-2.45-2.45v5.99h2.42c0-1.19,0-2.37,.03-3.54Z"/>
    <path class="cls-1" d="M108.16,270.35h-2.42v46.88l7.59-7.59c-2.71-12.83-5.03-26.34-5.17-39.29Z"/>
    <path class="cls-2" d="M113.34,309.64c12.83,2.71,26.34,5.03,39.29,5.17,1.19,0,2.37,0,3.54-.03l-23.99-23.99-18.84,18.84Z"/>
    <path class="cls-1" d="M152.62,314.81v2.42h5.99l-2.45-2.45c-1.18,.03-2.36,.04-3.54,.03Z"/>
    <path class="cls-1" d="M113.34,309.64l-7.59,7.59h46.88v-2.42c-12.95-.15-26.46-2.47-39.29-5.17Z"/>
    <path class="cls-2" d="M203.9,309.64c2.71-12.83,5.03-26.34,5.17-39.29,0-1.19,0-2.37-.03-3.54l-23.99,23.99,18.84,18.84Z"/>
    <path class="cls-1" d="M209.07,270.35h2.42v-5.99l-2.45,2.45c.03,1.18,.04,2.36,.03,3.54Z"/>
    <path class="cls-1" d="M203.9,309.64l7.59,7.59v-46.88h-2.42c-.15,12.95-2.47,26.46-5.17,39.29Z"/>
    <path class="cls-2" d="M185.05,290.8l-23.99,23.99c1.18,.03,2.36,.04,3.54,.03,12.95-.15,26.46-2.47,39.29-5.17l-18.84-18.84Z"/>
    <path class="cls-1" d="M164.61,314.81c-1.19,0-2.37,0-3.54-.03l-2.45,2.45h5.99v-2.42Z"/>
    <path class="cls-1" d="M164.61,314.81v2.42h46.88l-7.59-7.59c-12.83,2.71-26.34,5.03-39.29,5.17Z"/>
  </g>
  <g>
    <path class="cls-2" d="M7.59,324.82c-2.71,12.83-5.03,26.34-5.17,39.29,0,1.19,0,2.37,.03,3.54l23.99-23.99-18.84-18.84Z"/>
    <path class="cls-1" d="M2.42,364.11H0v5.99l2.45-2.45c-.03-1.18-.04-2.36-.03-3.54Z"/>
    <path class="cls-1" d="M7.59,324.82l-7.59-7.59v46.88H2.42c.15-12.95,2.47-26.46,5.17-39.29Z"/>
    <path class="cls-2" d="M50.42,319.68c-1.18-.03-2.36-.04-3.54-.03-12.95,.15-26.46,2.47-39.29,5.17l18.84,18.84,23.99-23.99Z"/>
    <path class="cls-1" d="M50.42,319.68l2.45-2.45h-5.99v2.42c1.19,0,2.37,0,3.54,.03Z"/>
    <path class="cls-1" d="M46.88,319.65v-2.42H0l7.59,7.59c12.83-2.71,26.34-5.03,39.29-5.17Z"/>
    <path class="cls-2" d="M103.29,367.65c.03-1.18,.04-2.36,.03-3.54-.15-12.95-2.47-26.46-5.17-39.29l-18.84,18.84,23.99,23.99Z"/>
    <path class="cls-1" d="M103.29,367.65l2.45,2.45v-5.99h-2.42c0,1.19,0,2.37-.03,3.54Z"/>
    <path class="cls-1" d="M103.33,364.11h2.42v-46.88l-7.59,7.59c2.71,12.83,5.03,26.34,5.17,39.29Z"/>
    <path class="cls-2" d="M98.15,324.82c-12.83-2.71-26.34-5.03-39.29-5.17-1.19,0-2.37,0-3.54,.03l23.99,23.99,18.84-18.84Z"/>
    <path class="cls-1" d="M58.86,319.65v-2.42h-5.99l2.45,2.45c1.18-.03,2.36-.04,3.54-.03Z"/>
    <path class="cls-1" d="M98.15,324.82l7.59-7.59H58.86v2.42c12.95,.15,26.46,2.47,39.29,5.17Z"/>
    <path class="cls-2" d="M79.31,343.67l-23.99-23.99c-.03,1.18-.04,2.36-.03,3.54,.15,12.95,2.47,26.46,5.17,39.29l18.84-18.84Z"/>
    <path class="cls-2" d="M45.28,362.51c2.71-12.83,5.03-26.34,5.17-39.29,0-1.19,0-2.37-.03-3.54l-23.99,23.99,18.84,18.84Z"/>
    <path class="cls-1" d="M50.45,323.23h4.84c0-1.19,0-2.37,.03-3.54l-2.45-2.45-2.45,2.45c.03,1.18,.04,2.36,.03,3.54Z"/>
    <path class="cls-1" d="M52.87,370.1l7.59-7.59c-2.71-12.83-5.03-26.34-5.17-39.29h-4.84c-.15,12.95-2.47,26.46-5.17,39.29l7.59,7.59Z"/>
    <path class="cls-2" d="M26.44,396.54l23.99,23.99c.03-1.18,.04-2.36,.03-3.54-.15-12.95-2.47-26.46-5.17-39.29l-18.84,18.84Z"/>
    <path class="cls-2" d="M60.46,377.7c-2.71,12.83-5.03,26.34-5.17,39.29,0,1.19,0,2.37,.03,3.54l23.99-23.99-18.84-18.84Z"/>
    <path class="cls-1" d="M55.29,416.98h-4.84c0,1.19,0,2.37-.03,3.54l2.45,2.45,2.45-2.45c-.03-1.18-.04-2.36-.03-3.54Z"/>
    <path class="cls-1" d="M52.87,370.1l-7.59,7.59c2.71,12.83,5.03,26.34,5.17,39.29h4.84c.15-12.95,2.47-26.46,5.17-39.29l-7.59-7.59Z"/>
    <path class="cls-2" d="M26.44,343.67l-23.99,23.99c1.18,.03,2.36,.04,3.54,.03,12.95-.15,26.46-2.47,39.29-5.17l-18.84-18.84Z"/>
    <path class="cls-2" d="M45.28,377.7c-12.83-2.71-26.34-5.03-39.29-5.17-1.19,0-2.37,0-3.54,.03l23.99,23.99,18.84-18.84Z"/>
    <path class="cls-1" d="M5.99,372.52v-4.84c-1.19,0-2.37,0-3.54-.03l-2.45,2.45,2.45,2.45c1.18-.03,2.36-.04,3.54-.03Z"/>
    <path class="cls-1" d="M52.87,370.1l-7.59-7.59c-12.83,2.71-26.34,5.03-39.29,5.17v4.84c12.95,.15,26.46,2.47,39.29,5.17l7.59-7.59Z"/>
    <path class="cls-2" d="M79.31,396.54l23.99-23.99c-1.18-.03-2.36-.04-3.54-.03-12.95,.15-26.46,2.47-39.29,5.17l18.84,18.84Z"/>
    <path class="cls-2" d="M60.46,362.51c12.83,2.71,26.34,5.03,39.29,5.17,1.19,0,2.37,0,3.54-.03l-23.99-23.99-18.84,18.84Z"/>
    <path class="cls-1" d="M99.75,367.69v4.84c1.19,0,2.37,0,3.54,.03l2.45-2.45-2.45-2.45c-1.18,.03-2.36,.04-3.54,.03Z"/>
    <path class="cls-1" d="M52.87,370.1l7.59,7.59c12.83-2.71,26.34-5.03,39.29-5.17v-4.84c-12.95-.15-26.46-2.47-39.29-5.17l-7.59,7.59Z"/>
    <path class="cls-2" d="M2.45,372.55c-.03,1.18-.04,2.36-.03,3.54,.15,12.95,2.47,26.46,5.17,39.29l18.84-18.84-23.99-23.99Z"/>
    <path class="cls-1" d="M2.45,372.55l-2.45-2.45v5.99H2.42c0-1.19,0-2.37,.03-3.54Z"/>
    <path class="cls-1" d="M2.42,376.1H0v46.88l7.59-7.59c-2.71-12.83-5.03-26.34-5.17-39.29Z"/>
    <path class="cls-2" d="M7.59,415.38c12.83,2.71,26.34,5.03,39.29,5.17,1.19,0,2.37,0,3.54-.03l-23.99-23.99-18.84,18.84Z"/>
    <path class="cls-1" d="M46.88,420.56v2.42h5.99l-2.45-2.45c-1.18,.03-2.36,.04-3.54,.03Z"/>
    <path class="cls-1" d="M7.59,415.38l-7.59,7.59H46.88v-2.42c-12.95-.15-26.46-2.47-39.29-5.17Z"/>
    <path class="cls-2" d="M98.15,415.38c2.71-12.83,5.03-26.34,5.17-39.29,0-1.19,0-2.37-.03-3.54l-23.99,23.99,18.84,18.84Z"/>
    <path class="cls-1" d="M103.33,376.1h2.42v-5.99l-2.45,2.45c.03,1.18,.04,2.36,.03,3.54Z"/>
    <path class="cls-1" d="M98.15,415.38l7.59,7.59v-46.88h-2.42c-.15,12.95-2.47,26.46-5.17,39.29Z"/>
    <path class="cls-2" d="M79.31,396.54l-23.99,23.99c1.18,.03,2.36,.04,3.54,.03,12.95-.15,26.46-2.47,39.29-5.17l-18.84-18.84Z"/>
    <path class="cls-1" d="M58.86,420.56c-1.19,0-2.37,0-3.54-.03l-2.45,2.45h5.99v-2.42Z"/>
    <path class="cls-1" d="M58.86,420.56v2.42h46.88l-7.59-7.59c-12.83,2.71-26.34,5.03-39.29,5.17Z"/>
  </g>
  <g>
    <path class="cls-2" d="M113.34,324.82c-2.71,12.83-5.03,26.34-5.17,39.29,0,1.19,0,2.37,.03,3.54l23.99-23.99-18.84-18.84Z"/>
    <path class="cls-1" d="M108.16,364.11h-2.42v5.99l2.45-2.45c-.03-1.18-.04-2.36-.03-3.54Z"/>
    <path class="cls-1" d="M113.34,324.82l-7.59-7.59v46.88h2.42c.15-12.95,2.47-26.46,5.17-39.29Z"/>
    <path class="cls-2" d="M156.17,319.68c-1.18-.03-2.36-.04-3.54-.03-12.95,.15-26.46,2.47-39.29,5.17l18.84,18.84,23.99-23.99Z"/>
    <path class="cls-1" d="M156.17,319.68l2.45-2.45h-5.99v2.42c1.19,0,2.37,0,3.54,.03Z"/>
    <path class="cls-1" d="M152.62,319.65v-2.42h-46.88l7.59,7.59c12.83-2.71,26.34-5.03,39.29-5.17Z"/>
    <path class="cls-2" d="M209.04,367.65c.03-1.18,.04-2.36,.03-3.54-.15-12.95-2.47-26.46-5.17-39.29l-18.84,18.84,23.99,23.99Z"/>
    <path class="cls-1" d="M209.04,367.65l2.45,2.45v-5.99h-2.42c0,1.19,0,2.37-.03,3.54Z"/>
    <path class="cls-1" d="M209.07,364.11h2.42v-46.88l-7.59,7.59c2.71,12.83,5.03,26.34,5.17,39.29Z"/>
    <path class="cls-2" d="M203.9,324.82c-12.83-2.71-26.34-5.03-39.29-5.17-1.19,0-2.37,0-3.54,.03l23.99,23.99,18.84-18.84Z"/>
    <path class="cls-1" d="M164.61,319.65v-2.42h-5.99l2.45,2.45c1.18-.03,2.36-.04,3.54-.03Z"/>
    <path class="cls-1" d="M203.9,324.82l7.59-7.59h-46.88v2.42c12.95,.15,26.46,2.47,39.29,5.17Z"/>
    <path class="cls-2" d="M185.05,343.67l-23.99-23.99c-.03,1.18-.04,2.36-.03,3.54,.15,12.95,2.47,26.46,5.17,39.29l18.84-18.84Z"/>
    <path class="cls-2" d="M151.02,362.51c2.71-12.83,5.03-26.34,5.17-39.29,0-1.19,0-2.37-.03-3.54l-23.99,23.99,18.84,18.84Z"/>
    <path class="cls-1" d="M156.2,323.23h4.84c0-1.19,0-2.37,.03-3.54l-2.45-2.45-2.45,2.45c.03,1.18,.04,2.36,.03,3.54Z"/>
    <path class="cls-1" d="M158.62,370.1l7.59-7.59c-2.71-12.83-5.03-26.34-5.17-39.29h-4.84c-.15,12.95-2.47,26.46-5.17,39.29l7.59,7.59Z"/>
    <path class="cls-2" d="M132.18,396.54l23.99,23.99c.03-1.18,.04-2.36,.03-3.54-.15-12.95-2.47-26.46-5.17-39.29l-18.84,18.84Z"/>
    <path class="cls-2" d="M166.21,377.7c-2.71,12.83-5.03,26.34-5.17,39.29,0,1.19,0,2.37,.03,3.54l23.99-23.99-18.84-18.84Z"/>
    <path class="cls-1" d="M161.04,416.98h-4.84c0,1.19,0,2.37-.03,3.54l2.45,2.45,2.45-2.45c-.03-1.18-.04-2.36-.03-3.54Z"/>
    <path class="cls-1" d="M158.62,370.1l-7.59,7.59c2.71,12.83,5.03,26.34,5.17,39.29h4.84c.15-12.95,2.47-26.46,5.17-39.29l-7.59-7.59Z"/>
    <path class="cls-2" d="M132.18,343.67l-23.99,23.99c1.18,.03,2.36,.04,3.54,.03,12.95-.15,26.46-2.47,39.29-5.17l-18.84-18.84Z"/>
    <path class="cls-2" d="M151.02,377.7c-12.83-2.71-26.34-5.03-39.29-5.17-1.19,0-2.37,0-3.54,.03l23.99,23.99,18.84-18.84Z"/>
    <path class="cls-1" d="M111.74,372.52v-4.84c-1.19,0-2.37,0-3.54-.03l-2.45,2.45,2.45,2.45c1.18-.03,2.36-.04,3.54-.03Z"/>
    <path class="cls-1" d="M158.62,370.1l-7.59-7.59c-12.83,2.71-26.34,5.03-39.29,5.17v4.84c12.95,.15,26.46,2.47,39.29,5.17l7.59-7.59Z"/>
    <path class="cls-2" d="M185.05,396.54l23.99-23.99c-1.18-.03-2.36-.04-3.54-.03-12.95,.15-26.46,2.47-39.29,5.17l18.84,18.84Z"/>
    <path class="cls-2" d="M166.21,362.51c12.83,2.71,26.34,5.03,39.29,5.17,1.19,0,2.37,0,3.54-.03l-23.99-23.99-18.84,18.84Z"/>
    <path class="cls-1" d="M205.5,367.69v4.84c1.19,0,2.37,0,3.54,.03l2.45-2.45-2.45-2.45c-1.18,.03-2.36,.04-3.54,.03Z"/>
    <path class="cls-1" d="M158.62,370.1l7.59,7.59c12.83-2.71,26.34-5.03,39.29-5.17v-4.84c-12.95-.15-26.46-2.47-39.29-5.17l-7.59,7.59Z"/>
    <path class="cls-2" d="M108.19,372.55c-.03,1.18-.04,2.36-.03,3.54,.15,12.95,2.47,26.46,5.17,39.29l18.84-18.84-23.99-23.99Z"/>
    <path class="cls-1" d="M108.19,372.55l-2.45-2.45v5.99h2.42c0-1.19,0-2.37,.03-3.54Z"/>
    <path class="cls-1" d="M108.16,376.1h-2.42v46.88l7.59-7.59c-2.71-12.83-5.03-26.34-5.17-39.29Z"/>
    <path class="cls-2" d="M113.34,415.38c12.83,2.71,26.34,5.03,39.29,5.17,1.19,0,2.37,0,3.54-.03l-23.99-23.99-18.84,18.84Z"/>
    <path class="cls-1" d="M152.62,420.56v2.42h5.99l-2.45-2.45c-1.18,.03-2.36,.04-3.54,.03Z"/>
    <path class="cls-1" d="M113.34,415.38l-7.59,7.59h46.88v-2.42c-12.95-.15-26.46-2.47-39.29-5.17Z"/>
    <path class="cls-2" d="M203.9,415.38c2.71-12.83,5.03-26.34,5.17-39.29,0-1.19,0-2.37-.03-3.54l-23.99,23.99,18.84,18.84Z"/>
    <path class="cls-1" d="M209.07,376.1h2.42v-5.99l-2.45,2.45c.03,1.18,.04,2.36,.03,3.54Z"/>
    <path class="cls-1" d="M203.9,415.38l7.59,7.59v-46.88h-2.42c-.15,12.95-2.47,26.46-5.17,39.29Z"/>
    <path class="cls-2" d="M185.05,396.54l-23.99,23.99c1.18,.03,2.36,.04,3.54,.03,12.95-.15,26.46-2.47,39.29-5.17l-18.84-18.84Z"/>
    <path class="cls-1" d="M164.61,420.56c-1.19,0-2.37,0-3.54-.03l-2.45,2.45h5.99v-2.42Z"/>
    <path class="cls-1" d="M164.61,420.56v2.42h46.88l-7.59-7.59c-12.83,2.71-26.34,5.03-39.29,5.17Z"/>
  </g>
  <g>
    <path class="cls-2" d="M7.59,430.57c-2.71,12.83-5.03,26.34-5.17,39.29,0,1.19,0,2.37,.03,3.54l23.99-23.99-18.84-18.84Z"/>
    <path class="cls-1" d="M2.42,469.86H0v5.99l2.45-2.45c-.03-1.18-.04-2.36-.03-3.54Z"/>
    <path class="cls-1" d="M7.59,430.57l-7.59-7.59v46.88H2.42c.15-12.95,2.47-26.46,5.17-39.29Z"/>
    <path class="cls-2" d="M50.42,425.43c-1.18-.03-2.36-.04-3.54-.03-12.95,.15-26.46,2.47-39.29,5.17l18.84,18.84,23.99-23.99Z"/>
    <path class="cls-1" d="M50.42,425.43l2.45-2.45h-5.99v2.42c1.19,0,2.37,0,3.54,.03Z"/>
    <path class="cls-1" d="M46.88,425.4v-2.42H0l7.59,7.59c12.83-2.71,26.34-5.03,39.29-5.17Z"/>
    <path class="cls-2" d="M103.29,473.4c.03-1.18,.04-2.36,.03-3.54-.15-12.95-2.47-26.46-5.17-39.29l-18.84,18.84,23.99,23.99Z"/>
    <path class="cls-1" d="M103.29,473.4l2.45,2.45v-5.99h-2.42c0,1.19,0,2.37-.03,3.54Z"/>
    <path class="cls-1" d="M103.33,469.86h2.42v-46.88l-7.59,7.59c2.71,12.83,5.03,26.34,5.17,39.29Z"/>
    <path class="cls-2" d="M98.15,430.57c-12.83-2.71-26.34-5.03-39.29-5.17-1.19,0-2.37,0-3.54,.03l23.99,23.99,18.84-18.84Z"/>
    <path class="cls-1" d="M58.86,425.4v-2.42h-5.99l2.45,2.45c1.18-.03,2.36-.04,3.54-.03Z"/>
    <path class="cls-1" d="M98.15,430.57l7.59-7.59H58.86v2.42c12.95,.15,26.46,2.47,39.29,5.17Z"/>
    <path class="cls-2" d="M79.31,449.41l-23.99-23.99c-.03,1.18-.04,2.36-.03,3.54,.15,12.95,2.47,26.46,5.17,39.29l18.84-18.84Z"/>
    <path class="cls-2" d="M45.28,468.26c2.71-12.83,5.03-26.34,5.17-39.29,0-1.19,0-2.37-.03-3.54l-23.99,23.99,18.84,18.84Z"/>
    <path class="cls-1" d="M50.45,428.97h4.84c0-1.19,0-2.37,.03-3.54l-2.45-2.45-2.45,2.45c.03,1.18,.04,2.36,.03,3.54Z"/>
    <path class="cls-1" d="M52.87,475.85l7.59-7.59c-2.71-12.83-5.03-26.34-5.17-39.29h-4.84c-.15,12.95-2.47,26.46-5.17,39.29l7.59,7.59Z"/>
    <path class="cls-2" d="M26.44,502.28l23.99,23.99c.03-1.18,.04-2.36,.03-3.54-.15-12.95-2.47-26.46-5.17-39.29l-18.84,18.84Z"/>
    <path class="cls-2" d="M60.46,483.44c-2.71,12.83-5.03,26.34-5.17,39.29,0,1.19,0,2.37,.03,3.54l23.99-23.99-18.84-18.84Z"/>
    <path class="cls-1" d="M55.29,522.73h-4.84c0,1.19,0,2.37-.03,3.54l2.45,2.45,2.45-2.45c-.03-1.18-.04-2.36-.03-3.54Z"/>
    <path class="cls-1" d="M52.87,475.85l-7.59,7.59c2.71,12.83,5.03,26.34,5.17,39.29h4.84c.15-12.95,2.47-26.46,5.17-39.29l-7.59-7.59Z"/>
    <path class="cls-2" d="M26.44,449.41l-23.99,23.99c1.18,.03,2.36,.04,3.54,.03,12.95-.15,26.46-2.47,39.29-5.17l-18.84-18.84Z"/>
    <path class="cls-2" d="M45.28,483.44c-12.83-2.71-26.34-5.03-39.29-5.17-1.19,0-2.37,0-3.54,.03l23.99,23.99,18.84-18.84Z"/>
    <path class="cls-1" d="M5.99,478.27v-4.84c-1.19,0-2.37,0-3.54-.03l-2.45,2.45,2.45,2.45c1.18-.03,2.36-.04,3.54-.03Z"/>
    <path class="cls-1" d="M52.87,475.85l-7.59-7.59c-12.83,2.71-26.34,5.03-39.29,5.17v4.84c12.95,.15,26.46,2.47,39.29,5.17l7.59-7.59Z"/>
    <path class="cls-2" d="M79.31,502.28l23.99-23.99c-1.18-.03-2.36-.04-3.54-.03-12.95,.15-26.46,2.47-39.29,5.17l18.84,18.84Z"/>
    <path class="cls-2" d="M60.46,468.26c12.83,2.71,26.34,5.03,39.29,5.17,1.19,0,2.37,0,3.54-.03l-23.99-23.99-18.84,18.84Z"/>
    <path class="cls-1" d="M99.75,473.43v4.84c1.19,0,2.37,0,3.54,.03l2.45-2.45-2.45-2.45c-1.18,.03-2.36,.04-3.54,.03Z"/>
    <path class="cls-1" d="M52.87,475.85l7.59,7.59c12.83-2.71,26.34-5.03,39.29-5.17v-4.84c-12.95-.15-26.46-2.47-39.29-5.17l-7.59,7.59Z"/>
    <path class="cls-2" d="M2.45,478.3c-.03,1.18-.04,2.36-.03,3.54,.15,12.95,2.47,26.46,5.17,39.29l18.84-18.84-23.99-23.99Z"/>
    <path class="cls-1" d="M2.45,478.3l-2.45-2.45v5.99H2.42c0-1.19,0-2.37,.03-3.54Z"/>
    <path class="cls-1" d="M2.42,481.84H0v46.88l7.59-7.59c-2.71-12.83-5.03-26.34-5.17-39.29Z"/>
    <path class="cls-2" d="M7.59,521.13c12.83,2.71,26.34,5.03,39.29,5.17,1.19,0,2.37,0,3.54-.03l-23.99-23.99-18.84,18.84Z"/>
    <path class="cls-1" d="M46.88,526.3v2.42h5.99l-2.45-2.45c-1.18,.03-2.36,.04-3.54,.03Z"/>
    <path class="cls-1" d="M7.59,521.13l-7.59,7.59H46.88v-2.42c-12.95-.15-26.46-2.47-39.29-5.17Z"/>
    <path class="cls-2" d="M98.15,521.13c2.71-12.83,5.03-26.34,5.17-39.29,0-1.19,0-2.37-.03-3.54l-23.99,23.99,18.84,18.84Z"/>
    <path class="cls-1" d="M103.33,481.84h2.42v-5.99l-2.45,2.45c.03,1.18,.04,2.36,.03,3.54Z"/>
    <path class="cls-1" d="M98.15,521.13l7.59,7.59v-46.88h-2.42c-.15,12.95-2.47,26.46-5.17,39.29Z"/>
    <path class="cls-2" d="M79.31,502.28l-23.99,23.99c1.18,.03,2.36,.04,3.54,.03,12.95-.15,26.46-2.47,39.29-5.17l-18.84-18.84Z"/>
    <path class="cls-1" d="M58.86,526.3c-1.19,0-2.37,0-3.54-.03l-2.45,2.45h5.99v-2.42Z"/>
    <path class="cls-1" d="M58.86,526.3v2.42h46.88l-7.59-7.59c-12.83,2.71-26.34,5.03-39.29,5.17Z"/>
  </g>
  <g>
    <path class="cls-2" d="M113.34,430.57c-2.71,12.83-5.03,26.34-5.17,39.29,0,1.19,0,2.37,.03,3.54l23.99-23.99-18.84-18.84Z"/>
    <path class="cls-1" d="M108.16,469.86h-2.42v5.99l2.45-2.45c-.03-1.18-.04-2.36-.03-3.54Z"/>
    <path class="cls-1" d="M113.34,430.57l-7.59-7.59v46.88h2.42c.15-12.95,2.47-26.46,5.17-39.29Z"/>
    <path class="cls-2" d="M156.17,425.43c-1.18-.03-2.36-.04-3.54-.03-12.95,.15-26.46,2.47-39.29,5.17l18.84,18.84,23.99-23.99Z"/>
    <path class="cls-1" d="M156.17,425.43l2.45-2.45h-5.99v2.42c1.19,0,2.37,0,3.54,.03Z"/>
    <path class="cls-1" d="M152.62,425.4v-2.42h-46.88l7.59,7.59c12.83-2.71,26.34-5.03,39.29-5.17Z"/>
    <path class="cls-2" d="M209.04,473.4c.03-1.18,.04-2.36,.03-3.54-.15-12.95-2.47-26.46-5.17-39.29l-18.84,18.84,23.99,23.99Z"/>
    <path class="cls-1" d="M209.04,473.4l2.45,2.45v-5.99h-2.42c0,1.19,0,2.37-.03,3.54Z"/>
    <path class="cls-1" d="M209.07,469.86h2.42v-46.88l-7.59,7.59c2.71,12.83,5.03,26.34,5.17,39.29Z"/>
    <path class="cls-2" d="M203.9,430.57c-12.83-2.71-26.34-5.03-39.29-5.17-1.19,0-2.37,0-3.54,.03l23.99,23.99,18.84-18.84Z"/>
    <path class="cls-1" d="M164.61,425.4v-2.42h-5.99l2.45,2.45c1.18-.03,2.36-.04,3.54-.03Z"/>
    <path class="cls-1" d="M203.9,430.57l7.59-7.59h-46.88v2.42c12.95,.15,26.46,2.47,39.29,5.17Z"/>
    <path class="cls-2" d="M185.05,449.41l-23.99-23.99c-.03,1.18-.04,2.36-.03,3.54,.15,12.95,2.47,26.46,5.17,39.29l18.84-18.84Z"/>
    <path class="cls-2" d="M151.02,468.26c2.71-12.83,5.03-26.34,5.17-39.29,0-1.19,0-2.37-.03-3.54l-23.99,23.99,18.84,18.84Z"/>
    <path class="cls-1" d="M156.2,428.97h4.84c0-1.19,0-2.37,.03-3.54l-2.45-2.45-2.45,2.45c.03,1.18,.04,2.36,.03,3.54Z"/>
    <path class="cls-1" d="M158.62,475.85l7.59-7.59c-2.71-12.83-5.03-26.34-5.17-39.29h-4.84c-.15,12.95-2.47,26.46-5.17,39.29l7.59,7.59Z"/>
    <path class="cls-2" d="M132.18,502.28l23.99,23.99c.03-1.18,.04-2.36,.03-3.54-.15-12.95-2.47-26.46-5.17-39.29l-18.84,18.84Z"/>
    <path class="cls-2" d="M166.21,483.44c-2.71,12.83-5.03,26.34-5.17,39.29,0,1.19,0,2.37,.03,3.54l23.99-23.99-18.84-18.84Z"/>
    <path class="cls-1" d="M161.04,522.73h-4.84c0,1.19,0,2.37-.03,3.54l2.45,2.45,2.45-2.45c-.03-1.18-.04-2.36-.03-3.54Z"/>
    <path class="cls-1" d="M158.62,475.85l-7.59,7.59c2.71,12.83,5.03,26.34,5.17,39.29h4.84c.15-12.95,2.47-26.46,5.17-39.29l-7.59-7.59Z"/>
    <path class="cls-2" d="M132.18,449.41l-23.99,23.99c1.18,.03,2.36,.04,3.54,.03,12.95-.15,26.46-2.47,39.29-5.17l-18.84-18.84Z"/>
    <path class="cls-2" d="M151.02,483.44c-12.83-2.71-26.34-5.03-39.29-5.17-1.19,0-2.37,0-3.54,.03l23.99,23.99,18.84-18.84Z"/>
    <path class="cls-1" d="M111.74,478.27v-4.84c-1.19,0-2.37,0-3.54-.03l-2.45,2.45,2.45,2.45c1.18-.03,2.36-.04,3.54-.03Z"/>
    <path class="cls-1" d="M158.62,475.85l-7.59-7.59c-12.83,2.71-26.34,5.03-39.29,5.17v4.84c12.95,.15,26.46,2.47,39.29,5.17l7.59-7.59Z"/>
    <path class="cls-2" d="M185.05,502.28l23.99-23.99c-1.18-.03-2.36-.04-3.54-.03-12.95,.15-26.46,2.47-39.29,5.17l18.84,18.84Z"/>
    <path class="cls-2" d="M166.21,468.26c12.83,2.71,26.34,5.03,39.29,5.17,1.19,0,2.37,0,3.54-.03l-23.99-23.99-18.84,18.84Z"/>
    <path class="cls-1" d="M205.5,473.43v4.84c1.19,0,2.37,0,3.54,.03l2.45-2.45-2.45-2.45c-1.18,.03-2.36,.04-3.54,.03Z"/>
    <path class="cls-1" d="M158.62,475.85l7.59,7.59c12.83-2.71,26.34-5.03,39.29-5.17v-4.84c-12.95-.15-26.46-2.47-39.29-5.17l-7.59,7.59Z"/>
    <path class="cls-2" d="M108.19,478.3c-.03,1.18-.04,2.36-.03,3.54,.15,12.95,2.47,26.46,5.17,39.29l18.84-18.84-23.99-23.99Z"/>
    <path class="cls-1" d="M108.19,478.3l-2.45-2.45v5.99h2.42c0-1.19,0-2.37,.03-3.54Z"/>
    <path class="cls-1" d="M108.16,481.84h-2.42v46.88l7.59-7.59c-2.71-12.83-5.03-26.34-5.17-39.29Z"/>
    <path class="cls-2" d="M113.34,521.13c12.83,2.71,26.34,5.03,39.29,5.17,1.19,0,2.37,0,3.54-.03l-23.99-23.99-18.84,18.84Z"/>
    <path class="cls-1" d="M152.62,526.3v2.42h5.99l-2.45-2.45c-1.18,.03-2.36,.04-3.54,.03Z"/>
    <path class="cls-1" d="M113.34,521.13l-7.59,7.59h46.88v-2.42c-12.95-.15-26.46-2.47-39.29-5.17Z"/>
    <path class="cls-2" d="M203.9,521.13c2.71-12.83,5.03-26.34,5.17-39.29,0-1.19,0-2.37-.03-3.54l-23.99,23.99,18.84,18.84Z"/>
    <path class="cls-1" d="M209.07,481.84h2.42v-5.99l-2.45,2.45c.03,1.18,.04,2.36,.03,3.54Z"/>
    <path class="cls-1" d="M203.9,521.13l7.59,7.59v-46.88h-2.42c-.15,12.95-2.47,26.46-5.17,39.29Z"/>
    <path class="cls-2" d="M185.05,502.28l-23.99,23.99c1.18,.03,2.36,.04,3.54,.03,12.95-.15,26.46-2.47,39.29-5.17l-18.84-18.84Z"/>
    <path class="cls-1" d="M164.61,526.3c-1.19,0-2.37,0-3.54-.03l-2.45,2.45h5.99v-2.42Z"/>
    <path class="cls-1" d="M164.61,526.3v2.42h46.88l-7.59-7.59c-12.83,2.71-26.34,5.03-39.29,5.17Z"/>
  </g>
  <g>
    <path class="cls-2" d="M7.59,536.31c-2.71,12.83-5.03,26.34-5.17,39.29,0,1.19,0,2.37,.03,3.54l23.99-23.99-18.84-18.84Z"/>
    <path class="cls-1" d="M2.42,575.6H0v5.99l2.45-2.45c-.03-1.18-.04-2.36-.03-3.54Z"/>
    <path class="cls-1" d="M7.59,536.31l-7.59-7.59v46.88H2.42c.15-12.95,2.47-26.46,5.17-39.29Z"/>
    <path class="cls-2" d="M50.42,531.17c-1.18-.03-2.36-.04-3.54-.03-12.95,.15-26.46,2.47-39.29,5.17l18.84,18.84,23.99-23.99Z"/>
    <path class="cls-1" d="M50.42,531.17l2.45-2.45h-5.99v2.42c1.19,0,2.37,0,3.54,.03Z"/>
    <path class="cls-1" d="M46.88,531.14v-2.42H0l7.59,7.59c12.83-2.71,26.34-5.03,39.29-5.17Z"/>
    <path class="cls-2" d="M103.29,579.14c.03-1.18,.04-2.36,.03-3.54-.15-12.95-2.47-26.46-5.17-39.29l-18.84,18.84,23.99,23.99Z"/>
    <path class="cls-1" d="M103.29,579.14l2.45,2.45v-5.99h-2.42c0,1.19,0,2.37-.03,3.54Z"/>
    <path class="cls-1" d="M103.33,575.6h2.42v-46.88l-7.59,7.59c2.71,12.83,5.03,26.34,5.17,39.29Z"/>
    <path class="cls-2" d="M98.15,536.31c-12.83-2.71-26.34-5.03-39.29-5.17-1.19,0-2.37,0-3.54,.03l23.99,23.99,18.84-18.84Z"/>
    <path class="cls-1" d="M58.86,531.14v-2.42h-5.99l2.45,2.45c1.18-.03,2.36-.04,3.54-.03Z"/>
    <path class="cls-1" d="M98.15,536.31l7.59-7.59H58.86v2.42c12.95,.15,26.46,2.47,39.29,5.17Z"/>
    <path class="cls-2" d="M79.31,555.16l-23.99-23.99c-.03,1.18-.04,2.36-.03,3.54,.15,12.95,2.47,26.46,5.17,39.29l18.84-18.84Z"/>
    <path class="cls-2" d="M45.28,574c2.71-12.83,5.03-26.34,5.17-39.29,0-1.19,0-2.37-.03-3.54l-23.99,23.99,18.84,18.84Z"/>
    <path class="cls-1" d="M50.45,534.71h4.84c0-1.19,0-2.37,.03-3.54l-2.45-2.45-2.45,2.45c.03,1.18,.04,2.36,.03,3.54Z"/>
    <path class="cls-1" d="M52.87,581.59l7.59-7.59c-2.71-12.83-5.03-26.34-5.17-39.29h-4.84c-.15,12.95-2.47,26.46-5.17,39.29l7.59,7.59Z"/>
    <path class="cls-2" d="M26.44,608.03l23.99,23.99c.03-1.18,.04-2.36,.03-3.54-.15-12.95-2.47-26.46-5.17-39.29l-18.84,18.84Z"/>
    <path class="cls-2" d="M60.46,589.18c-2.71,12.83-5.03,26.34-5.17,39.29,0,1.19,0,2.37,.03,3.54l23.99-23.99-18.84-18.84Z"/>
    <path class="cls-1" d="M55.29,628.47h-4.84c0,1.19,0,2.37-.03,3.54l2.45,2.45,2.45-2.45c-.03-1.18-.04-2.36-.03-3.54Z"/>
    <path class="cls-1" d="M52.87,581.59l-7.59,7.59c2.71,12.83,5.03,26.34,5.17,39.29h4.84c.15-12.95,2.47-26.46,5.17-39.29l-7.59-7.59Z"/>
    <path class="cls-2" d="M26.44,555.16l-23.99,23.99c1.18,.03,2.36,.04,3.54,.03,12.95-.15,26.46-2.47,39.29-5.17l-18.84-18.84Z"/>
    <path class="cls-2" d="M45.28,589.18c-12.83-2.71-26.34-5.03-39.29-5.17-1.19,0-2.37,0-3.54,.03l23.99,23.99,18.84-18.84Z"/>
    <path class="cls-1" d="M5.99,584.01v-4.84c-1.19,0-2.37,0-3.54-.03l-2.45,2.45,2.45,2.45c1.18-.03,2.36-.04,3.54-.03Z"/>
    <path class="cls-1" d="M52.87,581.59l-7.59-7.59c-12.83,2.71-26.34,5.03-39.29,5.17v4.84c12.95,.15,26.46,2.47,39.29,5.17l7.59-7.59Z"/>
    <path class="cls-2" d="M79.31,608.03l23.99-23.99c-1.18-.03-2.36-.04-3.54-.03-12.95,.15-26.46,2.47-39.29,5.17l18.84,18.84Z"/>
    <path class="cls-2" d="M60.46,574c12.83,2.71,26.34,5.03,39.29,5.17,1.19,0,2.37,0,3.54-.03l-23.99-23.99-18.84,18.84Z"/>
    <path class="cls-1" d="M99.75,579.17v4.84c1.19,0,2.37,0,3.54,.03l2.45-2.45-2.45-2.45c-1.18,.03-2.36,.04-3.54,.03Z"/>
    <path class="cls-1" d="M52.87,581.59l7.59,7.59c12.83-2.71,26.34-5.03,39.29-5.17v-4.84c-12.95-.15-26.46-2.47-39.29-5.17l-7.59,7.59Z"/>
    <path class="cls-2" d="M2.45,584.04c-.03,1.18-.04,2.36-.03,3.54,.15,12.95,2.47,26.46,5.17,39.29l18.84-18.84-23.99-23.99Z"/>
    <path class="cls-1" d="M2.45,584.04l-2.45-2.45v5.99H2.42c0-1.19,0-2.37,.03-3.54Z"/>
    <path class="cls-1" d="M2.42,587.59H0v46.88l7.59-7.59c-2.71-12.83-5.03-26.34-5.17-39.29Z"/>
    <path class="cls-2" d="M7.59,626.87c12.83,2.71,26.34,5.03,39.29,5.17,1.19,0,2.37,0,3.54-.03l-23.99-23.99-18.84,18.84Z"/>
    <path class="cls-1" d="M46.88,632.05v2.42h5.99l-2.45-2.45c-1.18,.03-2.36,.04-3.54,.03Z"/>
    <path class="cls-1" d="M7.59,626.87l-7.59,7.59H46.88v-2.42c-12.95-.15-26.46-2.47-39.29-5.17Z"/>
    <path class="cls-2" d="M98.15,626.87c2.71-12.83,5.03-26.34,5.17-39.29,0-1.19,0-2.37-.03-3.54l-23.99,23.99,18.84,18.84Z"/>
    <path class="cls-1" d="M103.33,587.59h2.42v-5.99l-2.45,2.45c.03,1.18,.04,2.36,.03,3.54Z"/>
    <path class="cls-1" d="M98.15,626.87l7.59,7.59v-46.88h-2.42c-.15,12.95-2.47,26.46-5.17,39.29Z"/>
    <path class="cls-2" d="M79.31,608.03l-23.99,23.99c1.18,.03,2.36,.04,3.54,.03,12.95-.15,26.46-2.47,39.29-5.17l-18.84-18.84Z"/>
    <path class="cls-1" d="M58.86,632.05c-1.19,0-2.37,0-3.54-.03l-2.45,2.45h5.99v-2.42Z"/>
    <path class="cls-1" d="M58.86,632.05v2.42h46.88l-7.59-7.59c-12.83,2.71-26.34,5.03-39.29,5.17Z"/>
  </g>
  <g>
    <path class="cls-2" d="M113.34,536.31c-2.71,12.83-5.03,26.34-5.17,39.29,0,1.19,0,2.37,.03,3.54l23.99-23.99-18.84-18.84Z"/>
    <path class="cls-1" d="M108.16,575.6h-2.42v5.99l2.45-2.45c-.03-1.18-.04-2.36-.03-3.54Z"/>
    <path class="cls-1" d="M113.34,536.31l-7.59-7.59v46.88h2.42c.15-12.95,2.47-26.46,5.17-39.29Z"/>
    <path class="cls-2" d="M156.17,531.17c-1.18-.03-2.36-.04-3.54-.03-12.95,.15-26.46,2.47-39.29,5.17l18.84,18.84,23.99-23.99Z"/>
    <path class="cls-1" d="M156.17,531.17l2.45-2.45h-5.99v2.42c1.19,0,2.37,0,3.54,.03Z"/>
    <path class="cls-1" d="M152.62,531.14v-2.42h-46.88l7.59,7.59c12.83-2.71,26.34-5.03,39.29-5.17Z"/>
    <path class="cls-2" d="M209.04,579.14c.03-1.18,.04-2.36,.03-3.54-.15-12.95-2.47-26.46-5.17-39.29l-18.84,18.84,23.99,23.99Z"/>
    <path class="cls-1" d="M209.04,579.14l2.45,2.45v-5.99h-2.42c0,1.19,0,2.37-.03,3.54Z"/>
    <path class="cls-1" d="M209.07,575.6h2.42v-46.88l-7.59,7.59c2.71,12.83,5.03,26.34,5.17,39.29Z"/>
    <path class="cls-2" d="M203.9,536.31c-12.83-2.71-26.34-5.03-39.29-5.17-1.19,0-2.37,0-3.54,.03l23.99,23.99,18.84-18.84Z"/>
    <path class="cls-1" d="M164.61,531.14v-2.42h-5.99l2.45,2.45c1.18-.03,2.36-.04,3.54-.03Z"/>
    <path class="cls-1" d="M203.9,536.31l7.59-7.59h-46.88v2.42c12.95,.15,26.46,2.47,39.29,5.17Z"/>
    <path class="cls-2" d="M185.05,555.16l-23.99-23.99c-.03,1.18-.04,2.36-.03,3.54,.15,12.95,2.47,26.46,5.17,39.29l18.84-18.84Z"/>
    <path class="cls-2" d="M151.02,574c2.71-12.83,5.03-26.34,5.17-39.29,0-1.19,0-2.37-.03-3.54l-23.99,23.99,18.84,18.84Z"/>
    <path class="cls-1" d="M156.2,534.71h4.84c0-1.19,0-2.37,.03-3.54l-2.45-2.45-2.45,2.45c.03,1.18,.04,2.36,.03,3.54Z"/>
    <path class="cls-1" d="M158.62,581.59l7.59-7.59c-2.71-12.83-5.03-26.34-5.17-39.29h-4.84c-.15,12.95-2.47,26.46-5.17,39.29l7.59,7.59Z"/>
    <path class="cls-2" d="M132.18,608.03l23.99,23.99c.03-1.18,.04-2.36,.03-3.54-.15-12.95-2.47-26.46-5.17-39.29l-18.84,18.84Z"/>
    <path class="cls-2" d="M166.21,589.18c-2.71,12.83-5.03,26.34-5.17,39.29,0,1.19,0,2.37,.03,3.54l23.99-23.99-18.84-18.84Z"/>
    <path class="cls-1" d="M161.04,628.47h-4.84c0,1.19,0,2.37-.03,3.54l2.45,2.45,2.45-2.45c-.03-1.18-.04-2.36-.03-3.54Z"/>
    <path class="cls-1" d="M158.62,581.59l-7.59,7.59c2.71,12.83,5.03,26.34,5.17,39.29h4.84c.15-12.95,2.47-26.46,5.17-39.29l-7.59-7.59Z"/>
    <path class="cls-2" d="M132.18,555.16l-23.99,23.99c1.18,.03,2.36,.04,3.54,.03,12.95-.15,26.46-2.47,39.29-5.17l-18.84-18.84Z"/>
    <path class="cls-2" d="M151.02,589.18c-12.83-2.71-26.34-5.03-39.29-5.17-1.19,0-2.37,0-3.54,.03l23.99,23.99,18.84-18.84Z"/>
    <path class="cls-1" d="M111.74,584.01v-4.84c-1.19,0-2.37,0-3.54-.03l-2.45,2.45,2.45,2.45c1.18-.03,2.36-.04,3.54-.03Z"/>
    <path class="cls-1" d="M158.62,581.59l-7.59-7.59c-12.83,2.71-26.34,5.03-39.29,5.17v4.84c12.95,.15,26.46,2.47,39.29,5.17l7.59-7.59Z"/>
    <path class="cls-2" d="M185.05,608.03l23.99-23.99c-1.18-.03-2.36-.04-3.54-.03-12.95,.15-26.46,2.47-39.29,5.17l18.84,18.84Z"/>
    <path class="cls-2" d="M166.21,574c12.83,2.71,26.34,5.03,39.29,5.17,1.19,0,2.37,0,3.54-.03l-23.99-23.99-18.84,18.84Z"/>
    <path class="cls-1" d="M205.5,579.17v4.84c1.19,0,2.37,0,3.54,.03l2.45-2.45-2.45-2.45c-1.18,.03-2.36,.04-3.54,.03Z"/>
    <path class="cls-1" d="M158.62,581.59l7.59,7.59c12.83-2.71,26.34-5.03,39.29-5.17v-4.84c-12.95-.15-26.46-2.47-39.29-5.17l-7.59,7.59Z"/>
    <path class="cls-2" d="M108.19,584.04c-.03,1.18-.04,2.36-.03,3.54,.15,12.95,2.47,26.46,5.17,39.29l18.84-18.84-23.99-23.99Z"/>
    <path class="cls-1" d="M108.19,584.04l-2.45-2.45v5.99h2.42c0-1.19,0-2.37,.03-3.54Z"/>
    <path class="cls-1" d="M108.16,587.59h-2.42v46.88l7.59-7.59c-2.71-12.83-5.03-26.34-5.17-39.29Z"/>
    <path class="cls-2" d="M113.34,626.87c12.83,2.71,26.34,5.03,39.29,5.17,1.19,0,2.37,0,3.54-.03l-23.99-23.99-18.84,18.84Z"/>
    <path class="cls-1" d="M152.62,632.05v2.42h5.99l-2.45-2.45c-1.18,.03-2.36,.04-3.54,.03Z"/>
    <path class="cls-1" d="M113.34,626.87l-7.59,7.59h46.88v-2.42c-12.95-.15-26.46-2.47-39.29-5.17Z"/>
    <path class="cls-2" d="M203.9,626.87c2.71-12.83,5.03-26.34,5.17-39.29,0-1.19,0-2.37-.03-3.54l-23.99,23.99,18.84,18.84Z"/>
    <path class="cls-1" d="M209.07,587.59h2.42v-5.99l-2.45,2.45c.03,1.18,.04,2.36,.03,3.54Z"/>
    <path class="cls-1" d="M203.9,626.87l7.59,7.59v-46.88h-2.42c-.15,12.95-2.47,26.46-5.17,39.29Z"/>
    <path class="cls-2" d="M185.05,608.03l-23.99,23.99c1.18,.03,2.36,.04,3.54,.03,12.95-.15,26.46-2.47,39.29-5.17l-18.84-18.84Z"/>
    <path class="cls-1" d="M164.61,632.05c-1.19,0-2.37,0-3.54-.03l-2.45,2.45h5.99v-2.42Z"/>
    <path class="cls-1" d="M164.61,632.05v2.42h46.88l-7.59-7.59c-12.83,2.71-26.34,5.03-39.29,5.17Z"/>
  </g>
  <g>
    <path class="cls-2" d="M7.59,642.06c-2.71,12.83-5.03,26.34-5.17,39.29,0,1.19,0,2.37,.03,3.54l23.99-23.99-18.84-18.84Z"/>
    <path class="cls-1" d="M2.42,681.34H0v5.99l2.45-2.45c-.03-1.18-.04-2.36-.03-3.54Z"/>
    <path class="cls-1" d="M7.59,642.06l-7.59-7.59v46.88H2.42c.15-12.95,2.47-26.46,5.17-39.29Z"/>
    <path class="cls-2" d="M50.42,636.91c-1.18-.03-2.36-.04-3.54-.03-12.95,.15-26.46,2.47-39.29,5.17l18.84,18.84,23.99-23.99Z"/>
    <path class="cls-1" d="M50.42,636.91l2.45-2.45h-5.99v2.42c1.19,0,2.37,0,3.54,.03Z"/>
    <path class="cls-1" d="M46.88,636.88v-2.42H0l7.59,7.59c12.83-2.71,26.34-5.03,39.29-5.17Z"/>
    <path class="cls-2" d="M103.29,684.89c.03-1.18,.04-2.36,.03-3.54-.15-12.95-2.47-26.46-5.17-39.29l-18.84,18.84,23.99,23.99Z"/>
    <path class="cls-1" d="M103.29,684.89l2.45,2.45v-5.99h-2.42c0,1.19,0,2.37-.03,3.54Z"/>
    <path class="cls-1" d="M103.33,681.34h2.42v-46.88l-7.59,7.59c2.71,12.83,5.03,26.34,5.17,39.29Z"/>
    <path class="cls-2" d="M98.15,642.06c-12.83-2.71-26.34-5.03-39.29-5.17-1.19,0-2.37,0-3.54,.03l23.99,23.99,18.84-18.84Z"/>
    <path class="cls-1" d="M58.86,636.88v-2.42h-5.99l2.45,2.45c1.18-.03,2.36-.04,3.54-.03Z"/>
    <path class="cls-1" d="M98.15,642.06l7.59-7.59H58.86v2.42c12.95,.15,26.46,2.47,39.29,5.17Z"/>
    <path class="cls-2" d="M79.31,660.9l-23.99-23.99c-.03,1.18-.04,2.36-.03,3.54,.15,12.95,2.47,26.46,5.17,39.29l18.84-18.84Z"/>
    <path class="cls-2" d="M45.28,679.75c2.71-12.83,5.03-26.34,5.17-39.29,0-1.19,0-2.37-.03-3.54l-23.99,23.99,18.84,18.84Z"/>
    <path class="cls-1" d="M50.45,640.46h4.84c0-1.19,0-2.37,.03-3.54l-2.45-2.45-2.45,2.45c.03,1.18,.04,2.36,.03,3.54Z"/>
    <path class="cls-1" d="M52.87,687.34l7.59-7.59c-2.71-12.83-5.03-26.34-5.17-39.29h-4.84c-.15,12.95-2.47,26.46-5.17,39.29l7.59,7.59Z"/>
    <path class="cls-2" d="M26.44,713.77l23.99,23.99c.03-1.18,.04-2.36,.03-3.54-.15-12.95-2.47-26.46-5.17-39.29l-18.84,18.84Z"/>
    <path class="cls-2" d="M60.46,694.93c-2.71,12.83-5.03,26.34-5.17,39.29,0,1.19,0,2.37,.03,3.54l23.99-23.99-18.84-18.84Z"/>
    <path class="cls-1" d="M55.29,734.22h-4.84c0,1.19,0,2.37-.03,3.54l2.45,2.45,2.45-2.45c-.03-1.18-.04-2.36-.03-3.54Z"/>
    <path class="cls-1" d="M52.87,687.34l-7.59,7.59c2.71,12.83,5.03,26.34,5.17,39.29h4.84c.15-12.95,2.47-26.46,5.17-39.29l-7.59-7.59Z"/>
    <path class="cls-2" d="M26.44,660.9l-23.99,23.99c1.18,.03,2.36,.04,3.54,.03,12.95-.15,26.46-2.47,39.29-5.17l-18.84-18.84Z"/>
    <path class="cls-2" d="M45.28,694.93c-12.83-2.71-26.34-5.03-39.29-5.17-1.19,0-2.37,0-3.54,.03l23.99,23.99,18.84-18.84Z"/>
    <path class="cls-1" d="M5.99,689.76v-4.84c-1.19,0-2.37,0-3.54-.03l-2.45,2.45,2.45,2.45c1.18-.03,2.36-.04,3.54-.03Z"/>
    <path class="cls-1" d="M52.87,687.34l-7.59-7.59c-12.83,2.71-26.34,5.03-39.29,5.17v4.84c12.95,.15,26.46,2.47,39.29,5.17l7.59-7.59Z"/>
    <path class="cls-2" d="M79.31,713.77l23.99-23.99c-1.18-.03-2.36-.04-3.54-.03-12.95,.15-26.46,2.47-39.29,5.17l18.84,18.84Z"/>
    <path class="cls-2" d="M60.46,679.75c12.83,2.71,26.34,5.03,39.29,5.17,1.19,0,2.37,0,3.54-.03l-23.99-23.99-18.84,18.84Z"/>
    <path class="cls-1" d="M99.75,684.92v4.84c1.19,0,2.37,0,3.54,.03l2.45-2.45-2.45-2.45c-1.18,.03-2.36,.04-3.54,.03Z"/>
    <path class="cls-1" d="M52.87,687.34l7.59,7.59c12.83-2.71,26.34-5.03,39.29-5.17v-4.84c-12.95-.15-26.46-2.47-39.29-5.17l-7.59,7.59Z"/>
    <path class="cls-2" d="M2.45,689.79c-.03,1.18-.04,2.36-.03,3.54,.15,12.95,2.47,26.46,5.17,39.29l18.84-18.84-23.99-23.99Z"/>
    <path class="cls-1" d="M2.45,689.79l-2.45-2.45v5.99H2.42c0-1.19,0-2.37,.03-3.54Z"/>
    <path class="cls-1" d="M2.42,693.33H0v46.88l7.59-7.59c-2.71-12.83-5.03-26.34-5.17-39.29Z"/>
    <path class="cls-2" d="M7.59,732.62c12.83,2.71,26.34,5.03,39.29,5.17,1.19,0,2.37,0,3.54-.03l-23.99-23.99-18.84,18.84Z"/>
    <path class="cls-1" d="M46.88,737.79v2.42h5.99l-2.45-2.45c-1.18,.03-2.36,.04-3.54,.03Z"/>
    <path class="cls-1" d="M7.59,732.62l-7.59,7.59H46.88v-2.42c-12.95-.15-26.46-2.47-39.29-5.17Z"/>
    <path class="cls-2" d="M98.15,732.62c2.71-12.83,5.03-26.34,5.17-39.29,0-1.19,0-2.37-.03-3.54l-23.99,23.99,18.84,18.84Z"/>
    <path class="cls-1" d="M103.33,693.33h2.42v-5.99l-2.45,2.45c.03,1.18,.04,2.36,.03,3.54Z"/>
    <path class="cls-1" d="M98.15,732.62l7.59,7.59v-46.88h-2.42c-.15,12.95-2.47,26.46-5.17,39.29Z"/>
    <path class="cls-2" d="M79.31,713.77l-23.99,23.99c1.18,.03,2.36,.04,3.54,.03,12.95-.15,26.46-2.47,39.29-5.17l-18.84-18.84Z"/>
    <path class="cls-1" d="M58.86,737.79c-1.19,0-2.37,0-3.54-.03l-2.45,2.45h5.99v-2.42Z"/>
    <path class="cls-1" d="M58.86,737.79v2.42h46.88l-7.59-7.59c-12.83,2.71-26.34,5.03-39.29,5.17Z"/>
  </g>
  <g>
    <path class="cls-2" d="M113.34,642.06c-2.71,12.83-5.03,26.34-5.17,39.29,0,1.19,0,2.37,.03,3.54l23.99-23.99-18.84-18.84Z"/>
    <path class="cls-1" d="M108.16,681.34h-2.42v5.99l2.45-2.45c-.03-1.18-.04-2.36-.03-3.54Z"/>
    <path class="cls-1" d="M113.34,642.06l-7.59-7.59v46.88h2.42c.15-12.95,2.47-26.46,5.17-39.29Z"/>
    <path class="cls-2" d="M156.17,636.91c-1.18-.03-2.36-.04-3.54-.03-12.95,.15-26.46,2.47-39.29,5.17l18.84,18.84,23.99-23.99Z"/>
    <path class="cls-1" d="M156.17,636.91l2.45-2.45h-5.99v2.42c1.19,0,2.37,0,3.54,.03Z"/>
    <path class="cls-1" d="M152.62,636.88v-2.42h-46.88l7.59,7.59c12.83-2.71,26.34-5.03,39.29-5.17Z"/>
    <path class="cls-2" d="M209.04,684.89c.03-1.18,.04-2.36,.03-3.54-.15-12.95-2.47-26.46-5.17-39.29l-18.84,18.84,23.99,23.99Z"/>
    <path class="cls-1" d="M209.04,684.89l2.45,2.45v-5.99h-2.42c0,1.19,0,2.37-.03,3.54Z"/>
    <path class="cls-1" d="M209.07,681.34h2.42v-46.88l-7.59,7.59c2.71,12.83,5.03,26.34,5.17,39.29Z"/>
    <path class="cls-2" d="M203.9,642.06c-12.83-2.71-26.34-5.03-39.29-5.17-1.19,0-2.37,0-3.54,.03l23.99,23.99,18.84-18.84Z"/>
    <path class="cls-1" d="M164.61,636.88v-2.42h-5.99l2.45,2.45c1.18-.03,2.36-.04,3.54-.03Z"/>
    <path class="cls-1" d="M203.9,642.06l7.59-7.59h-46.88v2.42c12.95,.15,26.46,2.47,39.29,5.17Z"/>
    <path class="cls-2" d="M185.05,660.9l-23.99-23.99c-.03,1.18-.04,2.36-.03,3.54,.15,12.95,2.47,26.46,5.17,39.29l18.84-18.84Z"/>
    <path class="cls-2" d="M151.02,679.75c2.71-12.83,5.03-26.34,5.17-39.29,0-1.19,0-2.37-.03-3.54l-23.99,23.99,18.84,18.84Z"/>
    <path class="cls-1" d="M156.2,640.46h4.84c0-1.19,0-2.37,.03-3.54l-2.45-2.45-2.45,2.45c.03,1.18,.04,2.36,.03,3.54Z"/>
    <path class="cls-1" d="M158.62,687.34l7.59-7.59c-2.71-12.83-5.03-26.34-5.17-39.29h-4.84c-.15,12.95-2.47,26.46-5.17,39.29l7.59,7.59Z"/>
    <path class="cls-2" d="M132.18,713.77l23.99,23.99c.03-1.18,.04-2.36,.03-3.54-.15-12.95-2.47-26.46-5.17-39.29l-18.84,18.84Z"/>
    <path class="cls-2" d="M166.21,694.93c-2.71,12.83-5.03,26.34-5.17,39.29,0,1.19,0,2.37,.03,3.54l23.99-23.99-18.84-18.84Z"/>
    <path class="cls-1" d="M161.04,734.22h-4.84c0,1.19,0,2.37-.03,3.54l2.45,2.45,2.45-2.45c-.03-1.18-.04-2.36-.03-3.54Z"/>
    <path class="cls-1" d="M158.62,687.34l-7.59,7.59c2.71,12.83,5.03,26.34,5.17,39.29h4.84c.15-12.95,2.47-26.46,5.17-39.29l-7.59-7.59Z"/>
    <path class="cls-2" d="M132.18,660.9l-23.99,23.99c1.18,.03,2.36,.04,3.54,.03,12.95-.15,26.46-2.47,39.29-5.17l-18.84-18.84Z"/>
    <path class="cls-2" d="M151.02,694.93c-12.83-2.71-26.34-5.03-39.29-5.17-1.19,0-2.37,0-3.54,.03l23.99,23.99,18.84-18.84Z"/>
    <path class="cls-1" d="M111.74,689.76v-4.84c-1.19,0-2.37,0-3.54-.03l-2.45,2.45,2.45,2.45c1.18-.03,2.36-.04,3.54-.03Z"/>
    <path class="cls-1" d="M158.62,687.34l-7.59-7.59c-12.83,2.71-26.34,5.03-39.29,5.17v4.84c12.95,.15,26.46,2.47,39.29,5.17l7.59-7.59Z"/>
    <path class="cls-2" d="M185.05,713.77l23.99-23.99c-1.18-.03-2.36-.04-3.54-.03-12.95,.15-26.46,2.47-39.29,5.17l18.84,18.84Z"/>
    <path class="cls-2" d="M166.21,679.75c12.83,2.71,26.34,5.03,39.29,5.17,1.19,0,2.37,0,3.54-.03l-23.99-23.99-18.84,18.84Z"/>
    <path class="cls-1" d="M205.5,684.92v4.84c1.19,0,2.37,0,3.54,.03l2.45-2.45-2.45-2.45c-1.18,.03-2.36,.04-3.54,.03Z"/>
    <path class="cls-1" d="M158.62,687.34l7.59,7.59c12.83-2.71,26.34-5.03,39.29-5.17v-4.84c-12.95-.15-26.46-2.47-39.29-5.17l-7.59,7.59Z"/>
    <path class="cls-2" d="M108.19,689.79c-.03,1.18-.04,2.36-.03,3.54,.15,12.95,2.47,26.46,5.17,39.29l18.84-18.84-23.99-23.99Z"/>
    <path class="cls-1" d="M108.19,689.79l-2.45-2.45v5.99h2.42c0-1.19,0-2.37,.03-3.54Z"/>
    <path class="cls-1" d="M108.16,693.33h-2.42v46.88l7.59-7.59c-2.71-12.83-5.03-26.34-5.17-39.29Z"/>
    <path class="cls-2" d="M113.34,732.62c12.83,2.71,26.34,5.03,39.29,5.17,1.19,0,2.37,0,3.54-.03l-23.99-23.99-18.84,18.84Z"/>
    <path class="cls-1" d="M152.62,737.79v2.42h5.99l-2.45-2.45c-1.18,.03-2.36,.04-3.54,.03Z"/>
    <path class="cls-1" d="M113.34,732.62l-7.59,7.59h46.88v-2.42c-12.95-.15-26.46-2.47-39.29-5.17Z"/>
    <path class="cls-2" d="M203.9,732.62c2.71-12.83,5.03-26.34,5.17-39.29,0-1.19,0-2.37-.03-3.54l-23.99,23.99,18.84,18.84Z"/>
    <path class="cls-1" d="M209.07,693.33h2.42v-5.99l-2.45,2.45c.03,1.18,.04,2.36,.03,3.54Z"/>
    <path class="cls-1" d="M203.9,732.62l7.59,7.59v-46.88h-2.42c-.15,12.95-2.47,26.46-5.17,39.29Z"/>
    <path class="cls-2" d="M185.05,713.77l-23.99,23.99c1.18,.03,2.36,.04,3.54,.03,12.95-.15,26.46-2.47,39.29-5.17l-18.84-18.84Z"/>
    <path class="cls-1" d="M164.61,737.79c-1.19,0-2.37,0-3.54-.03l-2.45,2.45h5.99v-2.42Z"/>
    <path class="cls-1" d="M164.61,737.79v2.42h46.88l-7.59-7.59c-12.83,2.71-26.34,5.03-39.29,5.17Z"/>
  </g>
  <g>
    <path class="cls-2" d="M7.59,747.8c-2.71,12.83-5.03,26.34-5.17,39.29,0,1.19,0,2.37,.03,3.54l23.99-23.99-18.84-18.84Z"/>
    <path class="cls-1" d="M2.42,787.09H0v5.99l2.45-2.45c-.03-1.18-.04-2.36-.03-3.54Z"/>
    <path class="cls-1" d="M7.59,747.8l-7.59-7.59v46.88H2.42c.15-12.95,2.47-26.46,5.17-39.29Z"/>
    <path class="cls-2" d="M50.42,742.66c-1.18-.03-2.36-.04-3.54-.03-12.95,.15-26.46,2.47-39.29,5.17l18.84,18.84,23.99-23.99Z"/>
    <path class="cls-1" d="M50.42,742.66l2.45-2.45h-5.99v2.42c1.19,0,2.37,0,3.54,.03Z"/>
    <path class="cls-1" d="M46.88,742.63v-2.42H0l7.59,7.59c12.83-2.71,26.34-5.03,39.29-5.17Z"/>
    <path class="cls-2" d="M103.29,790.63c.03-1.18,.04-2.36,.03-3.54-.15-12.95-2.47-26.46-5.17-39.29l-18.84,18.84,23.99,23.99Z"/>
    <path class="cls-1" d="M103.29,790.63l2.45,2.45v-5.99h-2.42c0,1.19,0,2.37-.03,3.54Z"/>
    <path class="cls-1" d="M103.33,787.09h2.42v-46.88l-7.59,7.59c2.71,12.83,5.03,26.34,5.17,39.29Z"/>
    <path class="cls-2" d="M98.15,747.8c-12.83-2.71-26.34-5.03-39.29-5.17-1.19,0-2.37,0-3.54,.03l23.99,23.99,18.84-18.84Z"/>
    <path class="cls-1" d="M58.86,742.63v-2.42h-5.99l2.45,2.45c1.18-.03,2.36-.04,3.54-.03Z"/>
    <path class="cls-1" d="M98.15,747.8l7.59-7.59H58.86v2.42c12.95,.15,26.46,2.47,39.29,5.17Z"/>
    <path class="cls-2" d="M79.31,766.65l-23.99-23.99c-.03,1.18-.04,2.36-.03,3.54,.15,12.95,2.47,26.46,5.17,39.29l18.84-18.84Z"/>
    <path class="cls-2" d="M45.28,785.49c2.71-12.83,5.03-26.34,5.17-39.29,0-1.19,0-2.37-.03-3.54l-23.99,23.99,18.84,18.84Z"/>
    <path class="cls-1" d="M50.45,746.2h4.84c0-1.19,0-2.37,.03-3.54l-2.45-2.45-2.45,2.45c.03,1.18,.04,2.36,.03,3.54Z"/>
    <path class="cls-1" d="M52.87,793.08l7.59-7.59c-2.71-12.83-5.03-26.34-5.17-39.29h-4.84c-.15,12.95-2.47,26.46-5.17,39.29l7.59,7.59Z"/>
    <path class="cls-2" d="M26.44,819.52l23.99,23.99c.03-1.18,.04-2.36,.03-3.54-.15-12.95-2.47-26.46-5.17-39.29l-18.84,18.84Z"/>
    <path class="cls-2" d="M60.46,800.67c-2.71,12.83-5.03,26.34-5.17,39.29,0,1.19,0,2.37,.03,3.54l23.99-23.99-18.84-18.84Z"/>
    <path class="cls-1" d="M55.29,839.96h-4.84c0,1.19,0,2.37-.03,3.54l2.45,2.45,2.45-2.45c-.03-1.18-.04-2.36-.03-3.54Z"/>
    <path class="cls-1" d="M52.87,793.08l-7.59,7.59c2.71,12.83,5.03,26.34,5.17,39.29h4.84c.15-12.95,2.47-26.46,5.17-39.29l-7.59-7.59Z"/>
    <path class="cls-2" d="M26.44,766.65l-23.99,23.99c1.18,.03,2.36,.04,3.54,.03,12.95-.15,26.46-2.47,39.29-5.17l-18.84-18.84Z"/>
    <path class="cls-2" d="M45.28,800.67c-12.83-2.71-26.34-5.03-39.29-5.17-1.19,0-2.37,0-3.54,.03l23.99,23.99,18.84-18.84Z"/>
    <path class="cls-1" d="M5.99,795.5v-4.84c-1.19,0-2.37,0-3.54-.03l-2.45,2.45,2.45,2.45c1.18-.03,2.36-.04,3.54-.03Z"/>
    <path class="cls-1" d="M52.87,793.08l-7.59-7.59c-12.83,2.71-26.34,5.03-39.29,5.17v4.84c12.95,.15,26.46,2.47,39.29,5.17l7.59-7.59Z"/>
    <path class="cls-2" d="M79.31,819.52l23.99-23.99c-1.18-.03-2.36-.04-3.54-.03-12.95,.15-26.46,2.47-39.29,5.17l18.84,18.84Z"/>
    <path class="cls-2" d="M60.46,785.49c12.83,2.71,26.34,5.03,39.29,5.17,1.19,0,2.37,0,3.54-.03l-23.99-23.99-18.84,18.84Z"/>
    <path class="cls-1" d="M99.75,790.66v4.84c1.19,0,2.37,0,3.54,.03l2.45-2.45-2.45-2.45c-1.18,.03-2.36,.04-3.54,.03Z"/>
    <path class="cls-1" d="M52.87,793.08l7.59,7.59c12.83-2.71,26.34-5.03,39.29-5.17v-4.84c-12.95-.15-26.46-2.47-39.29-5.17l-7.59,7.59Z"/>
    <path class="cls-2" d="M2.45,795.53c-.03,1.18-.04,2.36-.03,3.54,.15,12.95,2.47,26.46,5.17,39.29l18.84-18.84-23.99-23.99Z"/>
    <path class="cls-1" d="M2.45,795.53l-2.45-2.45v5.99H2.42c0-1.19,0-2.37,.03-3.54Z"/>
    <path class="cls-1" d="M2.42,799.07H0v46.88l7.59-7.59c-2.71-12.83-5.03-26.34-5.17-39.29Z"/>
    <path class="cls-2" d="M7.59,838.36c12.83,2.71,26.34,5.03,39.29,5.17,1.19,0,2.37,0,3.54-.03l-23.99-23.99-18.84,18.84Z"/>
    <path class="cls-1" d="M46.88,843.53v2.42h5.99l-2.45-2.45c-1.18,.03-2.36,.04-3.54,.03Z"/>
    <path class="cls-1" d="M7.59,838.36l-7.59,7.59H46.88v-2.42c-12.95-.15-26.46-2.47-39.29-5.17Z"/>
    <path class="cls-2" d="M98.15,838.36c2.71-12.83,5.03-26.34,5.17-39.29,0-1.19,0-2.37-.03-3.54l-23.99,23.99,18.84,18.84Z"/>
    <path class="cls-1" d="M103.33,799.07h2.42v-5.99l-2.45,2.45c.03,1.18,.04,2.36,.03,3.54Z"/>
    <path class="cls-1" d="M98.15,838.36l7.59,7.59v-46.88h-2.42c-.15,12.95-2.47,26.46-5.17,39.29Z"/>
    <path class="cls-2" d="M79.31,819.52l-23.99,23.99c1.18,.03,2.36,.04,3.54,.03,12.95-.15,26.46-2.47,39.29-5.17l-18.84-18.84Z"/>
    <path class="cls-1" d="M58.86,843.53c-1.19,0-2.37,0-3.54-.03l-2.45,2.45h5.99v-2.42Z"/>
    <path class="cls-1" d="M58.86,843.53v2.42h46.88l-7.59-7.59c-12.83,2.71-26.34,5.03-39.29,5.17Z"/>
  </g>
  <g>
    <path class="cls-2" d="M113.34,747.8c-2.71,12.83-5.03,26.34-5.17,39.29,0,1.19,0,2.37,.03,3.54l23.99-23.99-18.84-18.84Z"/>
    <path class="cls-1" d="M108.16,787.09h-2.42v5.99l2.45-2.45c-.03-1.18-.04-2.36-.03-3.54Z"/>
    <path class="cls-1" d="M113.34,747.8l-7.59-7.59v46.88h2.42c.15-12.95,2.47-26.46,5.17-39.29Z"/>
    <path class="cls-2" d="M156.17,742.66c-1.18-.03-2.36-.04-3.54-.03-12.95,.15-26.46,2.47-39.29,5.17l18.84,18.84,23.99-23.99Z"/>
    <path class="cls-1" d="M156.17,742.66l2.45-2.45h-5.99v2.42c1.19,0,2.37,0,3.54,.03Z"/>
    <path class="cls-1" d="M152.62,742.63v-2.42h-46.88l7.59,7.59c12.83-2.71,26.34-5.03,39.29-5.17Z"/>
    <path class="cls-2" d="M209.04,790.63c.03-1.18,.04-2.36,.03-3.54-.15-12.95-2.47-26.46-5.17-39.29l-18.84,18.84,23.99,23.99Z"/>
    <path class="cls-1" d="M209.04,790.63l2.45,2.45v-5.99h-2.42c0,1.19,0,2.37-.03,3.54Z"/>
    <path class="cls-1" d="M209.07,787.09h2.42v-46.88l-7.59,7.59c2.71,12.83,5.03,26.34,5.17,39.29Z"/>
    <path class="cls-2" d="M203.9,747.8c-12.83-2.71-26.34-5.03-39.29-5.17-1.19,0-2.37,0-3.54,.03l23.99,23.99,18.84-18.84Z"/>
    <path class="cls-1" d="M164.61,742.63v-2.42h-5.99l2.45,2.45c1.18-.03,2.36-.04,3.54-.03Z"/>
    <path class="cls-1" d="M203.9,747.8l7.59-7.59h-46.88v2.42c12.95,.15,26.46,2.47,39.29,5.17Z"/>
    <path class="cls-2" d="M185.05,766.65l-23.99-23.99c-.03,1.18-.04,2.36-.03,3.54,.15,12.95,2.47,26.46,5.17,39.29l18.84-18.84Z"/>
    <path class="cls-2" d="M151.02,785.49c2.71-12.83,5.03-26.34,5.17-39.29,0-1.19,0-2.37-.03-3.54l-23.99,23.99,18.84,18.84Z"/>
    <path class="cls-1" d="M156.2,746.2h4.84c0-1.19,0-2.37,.03-3.54l-2.45-2.45-2.45,2.45c.03,1.18,.04,2.36,.03,3.54Z"/>
    <path class="cls-1" d="M158.62,793.08l7.59-7.59c-2.71-12.83-5.03-26.34-5.17-39.29h-4.84c-.15,12.95-2.47,26.46-5.17,39.29l7.59,7.59Z"/>
    <path class="cls-2" d="M132.18,819.52l23.99,23.99c.03-1.18,.04-2.36,.03-3.54-.15-12.95-2.47-26.46-5.17-39.29l-18.84,18.84Z"/>
    <path class="cls-2" d="M166.21,800.67c-2.71,12.83-5.03,26.34-5.17,39.29,0,1.19,0,2.37,.03,3.54l23.99-23.99-18.84-18.84Z"/>
    <path class="cls-1" d="M161.04,839.96h-4.84c0,1.19,0,2.37-.03,3.54l2.45,2.45,2.45-2.45c-.03-1.18-.04-2.36-.03-3.54Z"/>
    <path class="cls-1" d="M158.62,793.08l-7.59,7.59c2.71,12.83,5.03,26.34,5.17,39.29h4.84c.15-12.95,2.47-26.46,5.17-39.29l-7.59-7.59Z"/>
    <path class="cls-2" d="M132.18,766.65l-23.99,23.99c1.18,.03,2.36,.04,3.54,.03,12.95-.15,26.46-2.47,39.29-5.17l-18.84-18.84Z"/>
    <path class="cls-2" d="M151.02,800.67c-12.83-2.71-26.34-5.03-39.29-5.17-1.19,0-2.37,0-3.54,.03l23.99,23.99,18.84-18.84Z"/>
    <path class="cls-1" d="M111.74,795.5v-4.84c-1.19,0-2.37,0-3.54-.03l-2.45,2.45,2.45,2.45c1.18-.03,2.36-.04,3.54-.03Z"/>
    <path class="cls-1" d="M158.62,793.08l-7.59-7.59c-12.83,2.71-26.34,5.03-39.29,5.17v4.84c12.95,.15,26.46,2.47,39.29,5.17l7.59-7.59Z"/>
    <path class="cls-2" d="M185.05,819.52l23.99-23.99c-1.18-.03-2.36-.04-3.54-.03-12.95,.15-26.46,2.47-39.29,5.17l18.84,18.84Z"/>
    <path class="cls-2" d="M166.21,785.49c12.83,2.71,26.34,5.03,39.29,5.17,1.19,0,2.37,0,3.54-.03l-23.99-23.99-18.84,18.84Z"/>
    <path class="cls-1" d="M205.5,790.66v4.84c1.19,0,2.37,0,3.54,.03l2.45-2.45-2.45-2.45c-1.18,.03-2.36,.04-3.54,.03Z"/>
    <path class="cls-1" d="M158.62,793.08l7.59,7.59c12.83-2.71,26.34-5.03,39.29-5.17v-4.84c-12.95-.15-26.46-2.47-39.29-5.17l-7.59,7.59Z"/>
    <path class="cls-2" d="M108.19,795.53c-.03,1.18-.04,2.36-.03,3.54,.15,12.95,2.47,26.46,5.17,39.29l18.84-18.84-23.99-23.99Z"/>
    <path class="cls-1" d="M108.19,795.53l-2.45-2.45v5.99h2.42c0-1.19,0-2.37,.03-3.54Z"/>
    <path class="cls-1" d="M108.16,799.07h-2.42v46.88l7.59-7.59c-2.71-12.83-5.03-26.34-5.17-39.29Z"/>
    <path class="cls-2" d="M113.34,838.36c12.83,2.71,26.34,5.03,39.29,5.17,1.19,0,2.37,0,3.54-.03l-23.99-23.99-18.84,18.84Z"/>
    <path class="cls-1" d="M152.62,843.53v2.42h5.99l-2.45-2.45c-1.18,.03-2.36,.04-3.54,.03Z"/>
    <path class="cls-1" d="M113.34,838.36l-7.59,7.59h46.88v-2.42c-12.95-.15-26.46-2.47-39.29-5.17Z"/>
    <path class="cls-2" d="M203.9,838.36c2.71-12.83,5.03-26.34,5.17-39.29,0-1.19,0-2.37-.03-3.54l-23.99,23.99,18.84,18.84Z"/>
    <path class="cls-1" d="M209.07,799.07h2.42v-5.99l-2.45,2.45c.03,1.18,.04,2.36,.03,3.54Z"/>
    <path class="cls-1" d="M203.9,838.36l7.59,7.59v-46.88h-2.42c-.15,12.95-2.47,26.46-5.17,39.29Z"/>
    <path class="cls-2" d="M185.05,819.52l-23.99,23.99c1.18,.03,2.36,.04,3.54,.03,12.95-.15,26.46-2.47,39.29-5.17l-18.84-18.84Z"/>
    <path class="cls-1" d="M164.61,843.53c-1.19,0-2.37,0-3.54-.03l-2.45,2.45h5.99v-2.42Z"/>
    <path class="cls-1" d="M164.61,843.53v2.42h46.88l-7.59-7.59c-12.83,2.71-26.34,5.03-39.29,5.17Z"/>
  </g>
</svg>