<?xml version="1.0" encoding="UTF-8"?>
<svg id="Layer_1" data-name="Layer 1" xmlns="http://www.w3.org/2000/svg" viewBox="0 0 500 2000">
  <defs>
    <style>
      .cls-1 {
        fill: #f1594d;
      }

      .cls-2 {
        fill: #1a3531;
      }
    </style>
  </defs>
  <g>
    <path class="cls-2" d="M0,91.93v33.07l24.61-24.61c-6.72-5.61-15.64-8.47-24.61-8.46Z"/>
    <path class="cls-1" d="M62.5,62.5L0,0V91.93c8.98-.01,17.89,2.85,24.61,8.46L62.5,62.5Z"/>
    <path class="cls-2" d="M125,0h-33.07c-.01,8.98,2.85,17.89,8.46,24.61L125,0Z"/>
    <path class="cls-1" d="M100.39,24.61c-5.61-6.72-8.47-15.64-8.46-24.61H0L62.5,62.5,100.39,24.61Z"/>
    <path class="cls-2" d="M250,125v-33.07c-8.98-.01-17.89,2.85-24.61,8.46l24.61,24.61Z"/>
    <path class="cls-1" d="M225.39,100.39c6.72-5.61,15.64-8.47,24.61-8.46V0l-62.5,62.5,37.89,37.89Z"/>
    <path class="cls-2" d="M158.07,0h-33.07l24.61,24.61c5.61-6.72,8.47-15.64,8.46-24.61Z"/>
    <path class="cls-1" d="M187.5,62.5L250,0h-91.93c.01,8.98-2.85,17.89-8.46,24.61l37.89,37.89Z"/>
    <path class="cls-2" d="M125,33.07c8.98,.01,17.89-2.85,24.61-8.46L125,0l-24.61,24.61c6.72,5.61,15.64,8.47,24.61,8.46Z"/>
    <path class="cls-1" d="M187.5,62.5l-37.89-37.89c-6.72,5.61-15.64,8.47-24.61,8.46-8.98,.01-17.89-2.85-24.61-8.46L62.5,62.5l62.5,62.5,62.5-62.5Z"/>
    <path class="cls-2" d="M125,216.93c-8.98-.01-17.89,2.85-24.61,8.46l24.61,24.61,24.61-24.61c-6.72-5.61-15.64-8.47-24.61-8.46Z"/>
    <path class="cls-1" d="M125,125l-62.5,62.5,37.89,37.89c6.72-5.61,15.64-8.47,24.61-8.46,8.98-.01,17.89,2.85,24.61,8.46l37.89-37.89-62.5-62.5Z"/>
    <path class="cls-2" d="M33.07,125c.01-8.98-2.85-17.89-8.46-24.61L0,125l24.61,24.61c5.61-6.72,8.47-15.64,8.46-24.61Z"/>
    <path class="cls-1" d="M62.5,62.5L24.61,100.39c5.61,6.72,8.47,15.64,8.46,24.61,.01,8.98-2.85,17.89-8.46,24.61l37.89,37.89,62.5-62.5L62.5,62.5Z"/>
    <path class="cls-2" d="M216.93,125c-.01,8.98,2.85,17.89,8.46,24.61l24.61-24.61-24.61-24.61c-5.61,6.72-8.47,15.64-8.46,24.61Z"/>
    <path class="cls-1" d="M187.5,187.5l37.89-37.89c-5.61-6.72-8.47-15.64-8.46-24.61-.01-8.98,2.85-17.89,8.46-24.61l-37.89-37.89-62.5,62.5,62.5,62.5Z"/>
    <path class="cls-2" d="M0,125v33.07c8.98,.01,17.89-2.85,24.61-8.46L0,125Z"/>
    <path class="cls-1" d="M24.61,149.61c-6.72,5.61-15.64,8.47-24.61,8.46v91.93l62.5-62.5-37.89-37.89Z"/>
    <path class="cls-2" d="M91.93,250h33.07l-24.61-24.61c-5.61,6.72-8.47,15.64-8.46,24.61Z"/>
    <path class="cls-1" d="M62.5,187.5L0,250H91.93c-.01-8.98,2.85-17.89,8.46-24.61l-37.89-37.89Z"/>
    <path class="cls-2" d="M250,158.07v-33.07l-24.61,24.61c6.72,5.61,15.64,8.47,24.61,8.46Z"/>
    <path class="cls-1" d="M187.5,187.5l62.5,62.5v-91.93c-8.98,.01-17.89-2.85-24.61-8.46l-37.89,37.89Z"/>
    <path class="cls-2" d="M149.61,225.39l-24.61,24.61h33.07c.01-8.98-2.85-17.89-8.46-24.61Z"/>
    <path class="cls-1" d="M149.61,225.39c5.61,6.72,8.47,15.64,8.46,24.61h91.93l-62.5-62.5-37.89,37.89Z"/>
  </g>
  <g>
    <path class="cls-2" d="M250,91.93v33.07l24.61-24.61c-6.72-5.61-15.64-8.47-24.61-8.46Z"/>
    <path class="cls-1" d="M312.5,62.5L250,0V91.93c8.98-.01,17.89,2.85,24.61,8.46l37.89-37.89Z"/>
    <path class="cls-2" d="M375,0h-33.07c-.01,8.98,2.85,17.89,8.46,24.61L375,0Z"/>
    <path class="cls-1" d="M350.39,24.61c-5.61-6.72-8.47-15.64-8.46-24.61h-91.93l62.5,62.5,37.89-37.89Z"/>
    <path class="cls-2" d="M500,125v-33.07c-8.98-.01-17.89,2.85-24.61,8.46l24.61,24.61Z"/>
    <path class="cls-1" d="M475.39,100.39c6.72-5.61,15.64-8.47,24.61-8.46V0l-62.5,62.5,37.89,37.89Z"/>
    <path class="cls-2" d="M408.07,0h-33.07l24.61,24.61c5.61-6.72,8.47-15.64,8.46-24.61Z"/>
    <path class="cls-1" d="M437.5,62.5L500,0h-91.93c.01,8.98-2.85,17.89-8.46,24.61l37.89,37.89Z"/>
    <path class="cls-2" d="M375,33.07c8.98,.01,17.89-2.85,24.61-8.46L375,0l-24.61,24.61c6.72,5.61,15.64,8.47,24.61,8.46Z"/>
    <path class="cls-1" d="M437.5,62.5l-37.89-37.89c-6.72,5.61-15.64,8.47-24.61,8.46-8.98,.01-17.89-2.85-24.61-8.46l-37.89,37.89,62.5,62.5,62.5-62.5Z"/>
    <path class="cls-2" d="M375,216.93c-8.98-.01-17.89,2.85-24.61,8.46l24.61,24.61,24.61-24.61c-6.72-5.61-15.64-8.47-24.61-8.46Z"/>
    <path class="cls-1" d="M375,125l-62.5,62.5,37.89,37.89c6.72-5.61,15.64-8.47,24.61-8.46,8.98-.01,17.89,2.85,24.61,8.46l37.89-37.89-62.5-62.5Z"/>
    <path class="cls-2" d="M283.07,125c.01-8.98-2.85-17.89-8.46-24.61l-24.61,24.61,24.61,24.61c5.61-6.72,8.47-15.64,8.46-24.61Z"/>
    <path class="cls-1" d="M312.5,62.5l-37.89,37.89c5.61,6.72,8.47,15.64,8.46,24.61,.01,8.98-2.85,17.89-8.46,24.61l37.89,37.89,62.5-62.5-62.5-62.5Z"/>
    <path class="cls-2" d="M466.93,125c-.01,8.98,2.85,17.89,8.46,24.61l24.61-24.61-24.61-24.61c-5.61,6.72-8.47,15.64-8.46,24.61Z"/>
    <path class="cls-1" d="M437.5,187.5l37.89-37.89c-5.61-6.72-8.47-15.64-8.46-24.61-.01-8.98,2.85-17.89,8.46-24.61l-37.89-37.89-62.5,62.5,62.5,62.5Z"/>
    <path class="cls-2" d="M250,125v33.07c8.98,.01,17.89-2.85,24.61-8.46l-24.61-24.61Z"/>
    <path class="cls-1" d="M274.61,149.61c-6.72,5.61-15.64,8.47-24.61,8.46v91.93l62.5-62.5-37.89-37.89Z"/>
    <path class="cls-2" d="M341.93,250h33.07l-24.61-24.61c-5.61,6.72-8.47,15.64-8.46,24.61Z"/>
    <path class="cls-1" d="M312.5,187.5l-62.5,62.5h91.93c-.01-8.98,2.85-17.89,8.46-24.61l-37.89-37.89Z"/>
    <path class="cls-2" d="M500,158.07v-33.07l-24.61,24.61c6.72,5.61,15.64,8.47,24.61,8.46Z"/>
    <path class="cls-1" d="M437.5,187.5l62.5,62.5v-91.93c-8.98,.01-17.89-2.85-24.61-8.46l-37.89,37.89Z"/>
    <path class="cls-2" d="M399.61,225.39l-24.61,24.61h33.07c.01-8.98-2.85-17.89-8.46-24.61Z"/>
    <path class="cls-1" d="M399.61,225.39c5.61,6.72,8.47,15.64,8.46,24.61h91.93l-62.5-62.5-37.89,37.89Z"/>
  </g>
  <g>
    <path class="cls-2" d="M0,341.93v33.07l24.61-24.61c-6.72-5.61-15.64-8.47-24.61-8.46Z"/>
    <path class="cls-1" d="M62.5,312.5L0,250v91.93c8.98-.01,17.89,2.85,24.61,8.46l37.89-37.89Z"/>
    <path class="cls-2" d="M125,250h-33.07c-.01,8.98,2.85,17.89,8.46,24.61l24.61-24.61Z"/>
    <path class="cls-1" d="M100.39,274.61c-5.61-6.72-8.47-15.64-8.46-24.61H0l62.5,62.5,37.89-37.89Z"/>
    <path class="cls-2" d="M250,375v-33.07c-8.98-.01-17.89,2.85-24.61,8.46l24.61,24.61Z"/>
    <path class="cls-1" d="M225.39,350.39c6.72-5.61,15.64-8.47,24.61-8.46v-91.93l-62.5,62.5,37.89,37.89Z"/>
    <path class="cls-2" d="M158.07,250h-33.07l24.61,24.61c5.61-6.72,8.47-15.64,8.46-24.61Z"/>
    <path class="cls-1" d="M187.5,312.5l62.5-62.5h-91.93c.01,8.98-2.85,17.89-8.46,24.61l37.89,37.89Z"/>
    <path class="cls-2" d="M125,283.07c8.98,.01,17.89-2.85,24.61-8.46l-24.61-24.61-24.61,24.61c6.72,5.61,15.64,8.47,24.61,8.46Z"/>
    <path class="cls-1" d="M187.5,312.5l-37.89-37.89c-6.72,5.61-15.64,8.47-24.61,8.46-8.98,.01-17.89-2.85-24.61-8.46l-37.89,37.89,62.5,62.5,62.5-62.5Z"/>
    <path class="cls-2" d="M125,466.93c-8.98-.01-17.89,2.85-24.61,8.46l24.61,24.61,24.61-24.61c-6.72-5.61-15.64-8.47-24.61-8.46Z"/>
    <path class="cls-1" d="M125,375l-62.5,62.5,37.89,37.89c6.72-5.61,15.64-8.47,24.61-8.46,8.98-.01,17.89,2.85,24.61,8.46l37.89-37.89-62.5-62.5Z"/>
    <path class="cls-2" d="M33.07,375c.01-8.98-2.85-17.89-8.46-24.61L0,375l24.61,24.61c5.61-6.72,8.47-15.64,8.46-24.61Z"/>
    <path class="cls-1" d="M62.5,312.5l-37.89,37.89c5.61,6.72,8.47,15.64,8.46,24.61,.01,8.98-2.85,17.89-8.46,24.61l37.89,37.89,62.5-62.5-62.5-62.5Z"/>
    <path class="cls-2" d="M216.93,375c-.01,8.98,2.85,17.89,8.46,24.61l24.61-24.61-24.61-24.61c-5.61,6.72-8.47,15.64-8.46,24.61Z"/>
    <path class="cls-1" d="M187.5,437.5l37.89-37.89c-5.61-6.72-8.47-15.64-8.46-24.61-.01-8.98,2.85-17.89,8.46-24.61l-37.89-37.89-62.5,62.5,62.5,62.5Z"/>
    <path class="cls-2" d="M0,375v33.07c8.98,.01,17.89-2.85,24.61-8.46L0,375Z"/>
    <path class="cls-1" d="M24.61,399.61c-6.72,5.61-15.64,8.47-24.61,8.46v91.93l62.5-62.5-37.89-37.89Z"/>
    <path class="cls-2" d="M91.93,500h33.07l-24.61-24.61c-5.61,6.72-8.47,15.64-8.46,24.61Z"/>
    <path class="cls-1" d="M62.5,437.5L0,500H91.93c-.01-8.98,2.85-17.89,8.46-24.61l-37.89-37.89Z"/>
    <path class="cls-2" d="M250,408.07v-33.07l-24.61,24.61c6.72,5.61,15.64,8.47,24.61,8.46Z"/>
    <path class="cls-1" d="M187.5,437.5l62.5,62.5v-91.93c-8.98,.01-17.89-2.85-24.61-8.46l-37.89,37.89Z"/>
    <path class="cls-2" d="M149.61,475.39l-24.61,24.61h33.07c.01-8.98-2.85-17.89-8.46-24.61Z"/>
    <path class="cls-1" d="M149.61,475.39c5.61,6.72,8.47,15.64,8.46,24.61h91.93l-62.5-62.5-37.89,37.89Z"/>
  </g>
  <g>
    <path class="cls-2" d="M250,341.93v33.07l24.61-24.61c-6.72-5.61-15.64-8.47-24.61-8.46Z"/>
    <path class="cls-1" d="M312.5,312.5l-62.5-62.5v91.93c8.98-.01,17.89,2.85,24.61,8.46l37.89-37.89Z"/>
    <path class="cls-2" d="M375,250h-33.07c-.01,8.98,2.85,17.89,8.46,24.61l24.61-24.61Z"/>
    <path class="cls-1" d="M350.39,274.61c-5.61-6.72-8.47-15.64-8.46-24.61h-91.93l62.5,62.5,37.89-37.89Z"/>
    <path class="cls-2" d="M500,375v-33.07c-8.98-.01-17.89,2.85-24.61,8.46l24.61,24.61Z"/>
    <path class="cls-1" d="M475.39,350.39c6.72-5.61,15.64-8.47,24.61-8.46v-91.93l-62.5,62.5,37.89,37.89Z"/>
    <path class="cls-2" d="M408.07,250h-33.07l24.61,24.61c5.61-6.72,8.47-15.64,8.46-24.61Z"/>
    <path class="cls-1" d="M437.5,312.5l62.5-62.5h-91.93c.01,8.98-2.85,17.89-8.46,24.61l37.89,37.89Z"/>
    <path class="cls-2" d="M375,283.07c8.98,.01,17.89-2.85,24.61-8.46l-24.61-24.61-24.61,24.61c6.72,5.61,15.64,8.47,24.61,8.46Z"/>
    <path class="cls-1" d="M437.5,312.5l-37.89-37.89c-6.72,5.61-15.64,8.47-24.61,8.46-8.98,.01-17.89-2.85-24.61-8.46l-37.89,37.89,62.5,62.5,62.5-62.5Z"/>
    <path class="cls-2" d="M375,466.93c-8.98-.01-17.89,2.85-24.61,8.46l24.61,24.61,24.61-24.61c-6.72-5.61-15.64-8.47-24.61-8.46Z"/>
    <path class="cls-1" d="M375,375l-62.5,62.5,37.89,37.89c6.72-5.61,15.64-8.47,24.61-8.46,8.98-.01,17.89,2.85,24.61,8.46l37.89-37.89-62.5-62.5Z"/>
    <path class="cls-2" d="M283.07,375c.01-8.98-2.85-17.89-8.46-24.61l-24.61,24.61,24.61,24.61c5.61-6.72,8.47-15.64,8.46-24.61Z"/>
    <path class="cls-1" d="M312.5,312.5l-37.89,37.89c5.61,6.72,8.47,15.64,8.46,24.61,.01,8.98-2.85,17.89-8.46,24.61l37.89,37.89,62.5-62.5-62.5-62.5Z"/>
    <path class="cls-2" d="M466.93,375c-.01,8.98,2.85,17.89,8.46,24.61l24.61-24.61-24.61-24.61c-5.61,6.72-8.47,15.64-8.46,24.61Z"/>
    <path class="cls-1" d="M437.5,437.5l37.89-37.89c-5.61-6.72-8.47-15.64-8.46-24.61-.01-8.98,2.85-17.89,8.46-24.61l-37.89-37.89-62.5,62.5,62.5,62.5Z"/>
    <path class="cls-2" d="M250,375v33.07c8.98,.01,17.89-2.85,24.61-8.46l-24.61-24.61Z"/>
    <path class="cls-1" d="M274.61,399.61c-6.72,5.61-15.64,8.47-24.61,8.46v91.93l62.5-62.5-37.89-37.89Z"/>
    <path class="cls-2" d="M341.93,500h33.07l-24.61-24.61c-5.61,6.72-8.47,15.64-8.46,24.61Z"/>
    <path class="cls-1" d="M312.5,437.5l-62.5,62.5h91.93c-.01-8.98,2.85-17.89,8.46-24.61l-37.89-37.89Z"/>
    <path class="cls-2" d="M500,408.07v-33.07l-24.61,24.61c6.72,5.61,15.64,8.47,24.61,8.46Z"/>
    <path class="cls-1" d="M437.5,437.5l62.5,62.5v-91.93c-8.98,.01-17.89-2.85-24.61-8.46l-37.89,37.89Z"/>
    <path class="cls-2" d="M399.61,475.39l-24.61,24.61h33.07c.01-8.98-2.85-17.89-8.46-24.61Z"/>
    <path class="cls-1" d="M399.61,475.39c5.61,6.72,8.47,15.64,8.46,24.61h91.93l-62.5-62.5-37.89,37.89Z"/>
  </g>
  <g>
    <path class="cls-2" d="M0,591.93v33.07l24.61-24.61c-6.72-5.61-15.64-8.47-24.61-8.46Z"/>
    <path class="cls-1" d="M62.5,562.5L0,500v91.93c8.98-.01,17.89,2.85,24.61,8.46l37.89-37.89Z"/>
    <path class="cls-2" d="M125,500h-33.07c-.01,8.98,2.85,17.89,8.46,24.61l24.61-24.61Z"/>
    <path class="cls-1" d="M100.39,524.61c-5.61-6.72-8.47-15.64-8.46-24.61H0l62.5,62.5,37.89-37.89Z"/>
    <path class="cls-2" d="M250,625v-33.07c-8.98-.01-17.89,2.85-24.61,8.46l24.61,24.61Z"/>
    <path class="cls-1" d="M225.39,600.39c6.72-5.61,15.64-8.47,24.61-8.46v-91.93l-62.5,62.5,37.89,37.89Z"/>
    <path class="cls-2" d="M158.07,500h-33.07l24.61,24.61c5.61-6.72,8.47-15.64,8.46-24.61Z"/>
    <path class="cls-1" d="M187.5,562.5l62.5-62.5h-91.93c.01,8.98-2.85,17.89-8.46,24.61l37.89,37.89Z"/>
    <path class="cls-2" d="M125,533.07c8.98,.01,17.89-2.85,24.61-8.46l-24.61-24.61-24.61,24.61c6.72,5.61,15.64,8.47,24.61,8.46Z"/>
    <path class="cls-1" d="M187.5,562.5l-37.89-37.89c-6.72,5.61-15.64,8.47-24.61,8.46-8.98,.01-17.89-2.85-24.61-8.46l-37.89,37.89,62.5,62.5,62.5-62.5Z"/>
    <path class="cls-2" d="M125,716.93c-8.98-.01-17.89,2.85-24.61,8.46l24.61,24.61,24.61-24.61c-6.72-5.61-15.64-8.47-24.61-8.46Z"/>
    <path class="cls-1" d="M125,625l-62.5,62.5,37.89,37.89c6.72-5.61,15.64-8.47,24.61-8.46,8.98-.01,17.89,2.85,24.61,8.46l37.89-37.89-62.5-62.5Z"/>
    <path class="cls-2" d="M33.07,625c.01-8.98-2.85-17.89-8.46-24.61L0,625l24.61,24.61c5.61-6.72,8.47-15.64,8.46-24.61Z"/>
    <path class="cls-1" d="M62.5,562.5l-37.89,37.89c5.61,6.72,8.47,15.64,8.46,24.61,.01,8.98-2.85,17.89-8.46,24.61l37.89,37.89,62.5-62.5-62.5-62.5Z"/>
    <path class="cls-2" d="M216.93,625c-.01,8.98,2.85,17.89,8.46,24.61l24.61-24.61-24.61-24.61c-5.61,6.72-8.47,15.64-8.46,24.61Z"/>
    <path class="cls-1" d="M187.5,687.5l37.89-37.89c-5.61-6.72-8.47-15.64-8.46-24.61-.01-8.98,2.85-17.89,8.46-24.61l-37.89-37.89-62.5,62.5,62.5,62.5Z"/>
    <path class="cls-2" d="M0,625v33.07c8.98,.01,17.89-2.85,24.61-8.46L0,625Z"/>
    <path class="cls-1" d="M24.61,649.61c-6.72,5.61-15.64,8.47-24.61,8.46v91.93l62.5-62.5-37.89-37.89Z"/>
    <path class="cls-2" d="M91.93,750h33.07l-24.61-24.61c-5.61,6.72-8.47,15.64-8.46,24.61Z"/>
    <path class="cls-1" d="M62.5,687.5L0,750H91.93c-.01-8.98,2.85-17.89,8.46-24.61l-37.89-37.89Z"/>
    <path class="cls-2" d="M250,658.07v-33.07l-24.61,24.61c6.72,5.61,15.64,8.47,24.61,8.46Z"/>
    <path class="cls-1" d="M187.5,687.5l62.5,62.5v-91.93c-8.98,.01-17.89-2.85-24.61-8.46l-37.89,37.89Z"/>
    <path class="cls-2" d="M149.61,725.39l-24.61,24.61h33.07c.01-8.98-2.85-17.89-8.46-24.61Z"/>
    <path class="cls-1" d="M149.61,725.39c5.61,6.72,8.47,15.64,8.46,24.61h91.93l-62.5-62.5-37.89,37.89Z"/>
  </g>
  <g>
    <path class="cls-2" d="M250,591.93v33.07l24.61-24.61c-6.72-5.61-15.64-8.47-24.61-8.46Z"/>
    <path class="cls-1" d="M312.5,562.5l-62.5-62.5v91.93c8.98-.01,17.89,2.85,24.61,8.46l37.89-37.89Z"/>
    <path class="cls-2" d="M375,500h-33.07c-.01,8.98,2.85,17.89,8.46,24.61l24.61-24.61Z"/>
    <path class="cls-1" d="M350.39,524.61c-5.61-6.72-8.47-15.64-8.46-24.61h-91.93l62.5,62.5,37.89-37.89Z"/>
    <path class="cls-2" d="M500,625v-33.07c-8.98-.01-17.89,2.85-24.61,8.46l24.61,24.61Z"/>
    <path class="cls-1" d="M475.39,600.39c6.72-5.61,15.64-8.47,24.61-8.46v-91.93l-62.5,62.5,37.89,37.89Z"/>
    <path class="cls-2" d="M408.07,500h-33.07l24.61,24.61c5.61-6.72,8.47-15.64,8.46-24.61Z"/>
    <path class="cls-1" d="M437.5,562.5l62.5-62.5h-91.93c.01,8.98-2.85,17.89-8.46,24.61l37.89,37.89Z"/>
    <path class="cls-2" d="M375,533.07c8.98,.01,17.89-2.85,24.61-8.46l-24.61-24.61-24.61,24.61c6.72,5.61,15.64,8.47,24.61,8.46Z"/>
    <path class="cls-1" d="M437.5,562.5l-37.89-37.89c-6.72,5.61-15.64,8.47-24.61,8.46-8.98,.01-17.89-2.85-24.61-8.46l-37.89,37.89,62.5,62.5,62.5-62.5Z"/>
    <path class="cls-2" d="M375,716.93c-8.98-.01-17.89,2.85-24.61,8.46l24.61,24.61,24.61-24.61c-6.72-5.61-15.64-8.47-24.61-8.46Z"/>
    <path class="cls-1" d="M375,625l-62.5,62.5,37.89,37.89c6.72-5.61,15.64-8.47,24.61-8.46,8.98-.01,17.89,2.85,24.61,8.46l37.89-37.89-62.5-62.5Z"/>
    <path class="cls-2" d="M283.07,625c.01-8.98-2.85-17.89-8.46-24.61l-24.61,24.61,24.61,24.61c5.61-6.72,8.47-15.64,8.46-24.61Z"/>
    <path class="cls-1" d="M312.5,562.5l-37.89,37.89c5.61,6.72,8.47,15.64,8.46,24.61,.01,8.98-2.85,17.89-8.46,24.61l37.89,37.89,62.5-62.5-62.5-62.5Z"/>
    <path class="cls-2" d="M466.93,625c-.01,8.98,2.85,17.89,8.46,24.61l24.61-24.61-24.61-24.61c-5.61,6.72-8.47,15.64-8.46,24.61Z"/>
    <path class="cls-1" d="M437.5,687.5l37.89-37.89c-5.61-6.72-8.47-15.64-8.46-24.61-.01-8.98,2.85-17.89,8.46-24.61l-37.89-37.89-62.5,62.5,62.5,62.5Z"/>
    <path class="cls-2" d="M250,625v33.07c8.98,.01,17.89-2.85,24.61-8.46l-24.61-24.61Z"/>
    <path class="cls-1" d="M274.61,649.61c-6.72,5.61-15.64,8.47-24.61,8.46v91.93l62.5-62.5-37.89-37.89Z"/>
    <path class="cls-2" d="M341.93,750h33.07l-24.61-24.61c-5.61,6.72-8.47,15.64-8.46,24.61Z"/>
    <path class="cls-1" d="M312.5,687.5l-62.5,62.5h91.93c-.01-8.98,2.85-17.89,8.46-24.61l-37.89-37.89Z"/>
    <path class="cls-2" d="M500,658.07v-33.07l-24.61,24.61c6.72,5.61,15.64,8.47,24.61,8.46Z"/>
    <path class="cls-1" d="M437.5,687.5l62.5,62.5v-91.93c-8.98,.01-17.89-2.85-24.61-8.46l-37.89,37.89Z"/>
    <path class="cls-2" d="M399.61,725.39l-24.61,24.61h33.07c.01-8.98-2.85-17.89-8.46-24.61Z"/>
    <path class="cls-1" d="M399.61,725.39c5.61,6.72,8.47,15.64,8.46,24.61h91.93l-62.5-62.5-37.89,37.89Z"/>
  </g>
  <g>
    <path class="cls-2" d="M0,841.93v33.07l24.61-24.61c-6.72-5.61-15.64-8.47-24.61-8.46Z"/>
    <path class="cls-1" d="M62.5,812.5L0,750v91.93c8.98-.01,17.89,2.85,24.61,8.46l37.89-37.89Z"/>
    <path class="cls-2" d="M125,750h-33.07c-.01,8.98,2.85,17.89,8.46,24.61l24.61-24.61Z"/>
    <path class="cls-1" d="M100.39,774.61c-5.61-6.72-8.47-15.64-8.46-24.61H0l62.5,62.5,37.89-37.89Z"/>
    <path class="cls-2" d="M250,875v-33.07c-8.98-.01-17.89,2.85-24.61,8.46l24.61,24.61Z"/>
    <path class="cls-1" d="M225.39,850.39c6.72-5.61,15.64-8.47,24.61-8.46v-91.93l-62.5,62.5,37.89,37.89Z"/>
    <path class="cls-2" d="M158.07,750h-33.07l24.61,24.61c5.61-6.72,8.47-15.64,8.46-24.61Z"/>
    <path class="cls-1" d="M187.5,812.5l62.5-62.5h-91.93c.01,8.98-2.85,17.89-8.46,24.61l37.89,37.89Z"/>
    <path class="cls-2" d="M125,783.07c8.98,.01,17.89-2.85,24.61-8.46l-24.61-24.61-24.61,24.61c6.72,5.61,15.64,8.47,24.61,8.46Z"/>
    <path class="cls-1" d="M187.5,812.5l-37.89-37.89c-6.72,5.61-15.64,8.47-24.61,8.46-8.98,.01-17.89-2.85-24.61-8.46l-37.89,37.89,62.5,62.5,62.5-62.5Z"/>
    <path class="cls-2" d="M125,966.93c-8.98-.01-17.89,2.85-24.61,8.46l24.61,24.61,24.61-24.61c-6.72-5.61-15.64-8.47-24.61-8.46Z"/>
    <path class="cls-1" d="M125,875l-62.5,62.5,37.89,37.89c6.72-5.61,15.64-8.47,24.61-8.46,8.98-.01,17.89,2.85,24.61,8.46l37.89-37.89-62.5-62.5Z"/>
    <path class="cls-2" d="M33.07,875c.01-8.98-2.85-17.89-8.46-24.61L0,875l24.61,24.61c5.61-6.72,8.47-15.64,8.46-24.61Z"/>
    <path class="cls-1" d="M62.5,812.5l-37.89,37.89c5.61,6.72,8.47,15.64,8.46,24.61,.01,8.98-2.85,17.89-8.46,24.61l37.89,37.89,62.5-62.5-62.5-62.5Z"/>
    <path class="cls-2" d="M216.93,875c-.01,8.98,2.85,17.89,8.46,24.61l24.61-24.61-24.61-24.61c-5.61,6.72-8.47,15.64-8.46,24.61Z"/>
    <path class="cls-1" d="M187.5,937.5l37.89-37.89c-5.61-6.72-8.47-15.64-8.46-24.61-.01-8.98,2.85-17.89,8.46-24.61l-37.89-37.89-62.5,62.5,62.5,62.5Z"/>
    <path class="cls-2" d="M0,875v33.07c8.98,.01,17.89-2.85,24.61-8.46L0,875Z"/>
    <path class="cls-1" d="M24.61,899.61c-6.72,5.61-15.64,8.47-24.61,8.46v91.93l62.5-62.5-37.89-37.89Z"/>
    <path class="cls-2" d="M91.93,1000h33.07l-24.61-24.61c-5.61,6.72-8.47,15.64-8.46,24.61Z"/>
    <path class="cls-1" d="M62.5,937.5L0,1000H91.93c-.01-8.98,2.85-17.89,8.46-24.61l-37.89-37.89Z"/>
    <path class="cls-2" d="M250,908.07v-33.07l-24.61,24.61c6.72,5.61,15.64,8.47,24.61,8.46Z"/>
    <path class="cls-1" d="M187.5,937.5l62.5,62.5v-91.93c-8.98,.01-17.89-2.85-24.61-8.46l-37.89,37.89Z"/>
    <path class="cls-2" d="M149.61,975.39l-24.61,24.61h33.07c.01-8.98-2.85-17.89-8.46-24.61Z"/>
    <path class="cls-1" d="M149.61,975.39c5.61,6.72,8.47,15.64,8.46,24.61h91.93l-62.5-62.5-37.89,37.89Z"/>
  </g>
  <g>
    <path class="cls-2" d="M250,841.93v33.07l24.61-24.61c-6.72-5.61-15.64-8.47-24.61-8.46Z"/>
    <path class="cls-1" d="M312.5,812.5l-62.5-62.5v91.93c8.98-.01,17.89,2.85,24.61,8.46l37.89-37.89Z"/>
    <path class="cls-2" d="M375,750h-33.07c-.01,8.98,2.85,17.89,8.46,24.61l24.61-24.61Z"/>
    <path class="cls-1" d="M350.39,774.61c-5.61-6.72-8.47-15.64-8.46-24.61h-91.93l62.5,62.5,37.89-37.89Z"/>
    <path class="cls-2" d="M500,875v-33.07c-8.98-.01-17.89,2.85-24.61,8.46l24.61,24.61Z"/>
    <path class="cls-1" d="M475.39,850.39c6.72-5.61,15.64-8.47,24.61-8.46v-91.93l-62.5,62.5,37.89,37.89Z"/>
    <path class="cls-2" d="M408.07,750h-33.07l24.61,24.61c5.61-6.72,8.47-15.64,8.46-24.61Z"/>
    <path class="cls-1" d="M437.5,812.5l62.5-62.5h-91.93c.01,8.98-2.85,17.89-8.46,24.61l37.89,37.89Z"/>
    <path class="cls-2" d="M375,783.07c8.98,.01,17.89-2.85,24.61-8.46l-24.61-24.61-24.61,24.61c6.72,5.61,15.64,8.47,24.61,8.46Z"/>
    <path class="cls-1" d="M437.5,812.5l-37.89-37.89c-6.72,5.61-15.64,8.47-24.61,8.46-8.98,.01-17.89-2.85-24.61-8.46l-37.89,37.89,62.5,62.5,62.5-62.5Z"/>
    <path class="cls-2" d="M375,966.93c-8.98-.01-17.89,2.85-24.61,8.46l24.61,24.61,24.61-24.61c-6.72-5.61-15.64-8.47-24.61-8.46Z"/>
    <path class="cls-1" d="M375,875l-62.5,62.5,37.89,37.89c6.72-5.61,15.64-8.47,24.61-8.46,8.98-.01,17.89,2.85,24.61,8.46l37.89-37.89-62.5-62.5Z"/>
    <path class="cls-2" d="M283.07,875c.01-8.98-2.85-17.89-8.46-24.61l-24.61,24.61,24.61,24.61c5.61-6.72,8.47-15.64,8.46-24.61Z"/>
    <path class="cls-1" d="M312.5,812.5l-37.89,37.89c5.61,6.72,8.47,15.64,8.46,24.61,.01,8.98-2.85,17.89-8.46,24.61l37.89,37.89,62.5-62.5-62.5-62.5Z"/>
    <path class="cls-2" d="M466.93,875c-.01,8.98,2.85,17.89,8.46,24.61l24.61-24.61-24.61-24.61c-5.61,6.72-8.47,15.64-8.46,24.61Z"/>
    <path class="cls-1" d="M437.5,937.5l37.89-37.89c-5.61-6.72-8.47-15.64-8.46-24.61-.01-8.98,2.85-17.89,8.46-24.61l-37.89-37.89-62.5,62.5,62.5,62.5Z"/>
    <path class="cls-2" d="M250,875v33.07c8.98,.01,17.89-2.85,24.61-8.46l-24.61-24.61Z"/>
    <path class="cls-1" d="M274.61,899.61c-6.72,5.61-15.64,8.47-24.61,8.46v91.93l62.5-62.5-37.89-37.89Z"/>
    <path class="cls-2" d="M341.93,1000h33.07l-24.61-24.61c-5.61,6.72-8.47,15.64-8.46,24.61Z"/>
    <path class="cls-1" d="M312.5,937.5l-62.5,62.5h91.93c-.01-8.98,2.85-17.89,8.46-24.61l-37.89-37.89Z"/>
    <path class="cls-2" d="M500,908.07v-33.07l-24.61,24.61c6.72,5.61,15.64,8.47,24.61,8.46Z"/>
    <path class="cls-1" d="M437.5,937.5l62.5,62.5v-91.93c-8.98,.01-17.89-2.85-24.61-8.46l-37.89,37.89Z"/>
    <path class="cls-2" d="M399.61,975.39l-24.61,24.61h33.07c.01-8.98-2.85-17.89-8.46-24.61Z"/>
    <path class="cls-1" d="M399.61,975.39c5.61,6.72,8.47,15.64,8.46,24.61h91.93l-62.5-62.5-37.89,37.89Z"/>
  </g>
  <g>
    <path class="cls-2" d="M0,1091.93v33.07l24.61-24.61c-6.72-5.61-15.64-8.47-24.61-8.46Z"/>
    <path class="cls-1" d="M62.5,1062.5L0,1000v91.93c8.98-.01,17.89,2.85,24.61,8.46l37.89-37.89Z"/>
    <path class="cls-2" d="M125,1000h-33.07c-.01,8.98,2.85,17.89,8.46,24.61l24.61-24.61Z"/>
    <path class="cls-1" d="M100.39,1024.61c-5.61-6.72-8.47-15.64-8.46-24.61H0l62.5,62.5,37.89-37.89Z"/>
    <path class="cls-2" d="M250,1125v-33.07c-8.98-.01-17.89,2.85-24.61,8.46l24.61,24.61Z"/>
    <path class="cls-1" d="M225.39,1100.39c6.72-5.61,15.64-8.47,24.61-8.46v-91.93l-62.5,62.5,37.89,37.89Z"/>
    <path class="cls-2" d="M158.07,1000h-33.07l24.61,24.61c5.61-6.72,8.47-15.64,8.46-24.61Z"/>
    <path class="cls-1" d="M187.5,1062.5l62.5-62.5h-91.93c.01,8.98-2.85,17.89-8.46,24.61l37.89,37.89Z"/>
    <path class="cls-2" d="M125,1033.07c8.98,.01,17.89-2.85,24.61-8.46l-24.61-24.61-24.61,24.61c6.72,5.61,15.64,8.47,24.61,8.46Z"/>
    <path class="cls-1" d="M187.5,1062.5l-37.89-37.89c-6.72,5.61-15.64,8.47-24.61,8.46-8.98,.01-17.89-2.85-24.61-8.46l-37.89,37.89,62.5,62.5,62.5-62.5Z"/>
    <path class="cls-2" d="M125,1216.93c-8.98-.01-17.89,2.85-24.61,8.46l24.61,24.61,24.61-24.61c-6.72-5.61-15.64-8.47-24.61-8.46Z"/>
    <path class="cls-1" d="M125,1125l-62.5,62.5,37.89,37.89c6.72-5.61,15.64-8.47,24.61-8.46,8.98-.01,17.89,2.85,24.61,8.46l37.89-37.89-62.5-62.5Z"/>
    <path class="cls-2" d="M33.07,1125c.01-8.98-2.85-17.89-8.46-24.61l-24.61,24.61,24.61,24.61c5.61-6.72,8.47-15.64,8.46-24.61Z"/>
    <path class="cls-1" d="M62.5,1062.5l-37.89,37.89c5.61,6.72,8.47,15.64,8.46,24.61,.01,8.98-2.85,17.89-8.46,24.61l37.89,37.89,62.5-62.5-62.5-62.5Z"/>
    <path class="cls-2" d="M216.93,1125c-.01,8.98,2.85,17.89,8.46,24.61l24.61-24.61-24.61-24.61c-5.61,6.72-8.47,15.64-8.46,24.61Z"/>
    <path class="cls-1" d="M187.5,1187.5l37.89-37.89c-5.61-6.72-8.47-15.64-8.46-24.61-.01-8.98,2.85-17.89,8.46-24.61l-37.89-37.89-62.5,62.5,62.5,62.5Z"/>
    <path class="cls-2" d="M0,1125v33.07c8.98,.01,17.89-2.85,24.61-8.46l-24.61-24.61Z"/>
    <path class="cls-1" d="M24.61,1149.61c-6.72,5.61-15.64,8.47-24.61,8.46v91.93l62.5-62.5-37.89-37.89Z"/>
    <path class="cls-2" d="M91.93,1250h33.07l-24.61-24.61c-5.61,6.72-8.47,15.64-8.46,24.61Z"/>
    <path class="cls-1" d="M62.5,1187.5L0,1250H91.93c-.01-8.98,2.85-17.89,8.46-24.61l-37.89-37.89Z"/>
    <path class="cls-2" d="M250,1158.07v-33.07l-24.61,24.61c6.72,5.61,15.64,8.47,24.61,8.46Z"/>
    <path class="cls-1" d="M187.5,1187.5l62.5,62.5v-91.93c-8.98,.01-17.89-2.85-24.61-8.46l-37.89,37.89Z"/>
    <path class="cls-2" d="M149.61,1225.39l-24.61,24.61h33.07c.01-8.98-2.85-17.89-8.46-24.61Z"/>
    <path class="cls-1" d="M149.61,1225.39c5.61,6.72,8.47,15.64,8.46,24.61h91.93l-62.5-62.5-37.89,37.89Z"/>
  </g>
  <g>
    <path class="cls-2" d="M250,1091.93v33.07l24.61-24.61c-6.72-5.61-15.64-8.47-24.61-8.46Z"/>
    <path class="cls-1" d="M312.5,1062.5l-62.5-62.5v91.93c8.98-.01,17.89,2.85,24.61,8.46l37.89-37.89Z"/>
    <path class="cls-2" d="M375,1000h-33.07c-.01,8.98,2.85,17.89,8.46,24.61l24.61-24.61Z"/>
    <path class="cls-1" d="M350.39,1024.61c-5.61-6.72-8.47-15.64-8.46-24.61h-91.93l62.5,62.5,37.89-37.89Z"/>
    <path class="cls-2" d="M500,1125v-33.07c-8.98-.01-17.89,2.85-24.61,8.46l24.61,24.61Z"/>
    <path class="cls-1" d="M475.39,1100.39c6.72-5.61,15.64-8.47,24.61-8.46v-91.93l-62.5,62.5,37.89,37.89Z"/>
    <path class="cls-2" d="M408.07,1000h-33.07l24.61,24.61c5.61-6.72,8.47-15.64,8.46-24.61Z"/>
    <path class="cls-1" d="M437.5,1062.5l62.5-62.5h-91.93c.01,8.98-2.85,17.89-8.46,24.61l37.89,37.89Z"/>
    <path class="cls-2" d="M375,1033.07c8.98,.01,17.89-2.85,24.61-8.46l-24.61-24.61-24.61,24.61c6.72,5.61,15.64,8.47,24.61,8.46Z"/>
    <path class="cls-1" d="M437.5,1062.5l-37.89-37.89c-6.72,5.61-15.64,8.47-24.61,8.46-8.98,.01-17.89-2.85-24.61-8.46l-37.89,37.89,62.5,62.5,62.5-62.5Z"/>
    <path class="cls-2" d="M375,1216.93c-8.98-.01-17.89,2.85-24.61,8.46l24.61,24.61,24.61-24.61c-6.72-5.61-15.64-8.47-24.61-8.46Z"/>
    <path class="cls-1" d="M375,1125l-62.5,62.5,37.89,37.89c6.72-5.61,15.64-8.47,24.61-8.46,8.98-.01,17.89,2.85,24.61,8.46l37.89-37.89-62.5-62.5Z"/>
    <path class="cls-2" d="M283.07,1125c.01-8.98-2.85-17.89-8.46-24.61l-24.61,24.61,24.61,24.61c5.61-6.72,8.47-15.64,8.46-24.61Z"/>
    <path class="cls-1" d="M312.5,1062.5l-37.89,37.89c5.61,6.72,8.47,15.64,8.46,24.61,.01,8.98-2.85,17.89-8.46,24.61l37.89,37.89,62.5-62.5-62.5-62.5Z"/>
    <path class="cls-2" d="M466.93,1125c-.01,8.98,2.85,17.89,8.46,24.61l24.61-24.61-24.61-24.61c-5.61,6.72-8.47,15.64-8.46,24.61Z"/>
    <path class="cls-1" d="M437.5,1187.5l37.89-37.89c-5.61-6.72-8.47-15.64-8.46-24.61-.01-8.98,2.85-17.89,8.46-24.61l-37.89-37.89-62.5,62.5,62.5,62.5Z"/>
    <path class="cls-2" d="M250,1125v33.07c8.98,.01,17.89-2.85,24.61-8.46l-24.61-24.61Z"/>
    <path class="cls-1" d="M274.61,1149.61c-6.72,5.61-15.64,8.47-24.61,8.46v91.93l62.5-62.5-37.89-37.89Z"/>
    <path class="cls-2" d="M341.93,1250h33.07l-24.61-24.61c-5.61,6.72-8.47,15.64-8.46,24.61Z"/>
    <path class="cls-1" d="M312.5,1187.5l-62.5,62.5h91.93c-.01-8.98,2.85-17.89,8.46-24.61l-37.89-37.89Z"/>
    <path class="cls-2" d="M500,1158.07v-33.07l-24.61,24.61c6.72,5.61,15.64,8.47,24.61,8.46Z"/>
    <path class="cls-1" d="M437.5,1187.5l62.5,62.5v-91.93c-8.98,.01-17.89-2.85-24.61-8.46l-37.89,37.89Z"/>
    <path class="cls-2" d="M399.61,1225.39l-24.61,24.61h33.07c.01-8.98-2.85-17.89-8.46-24.61Z"/>
    <path class="cls-1" d="M399.61,1225.39c5.61,6.72,8.47,15.64,8.46,24.61h91.93l-62.5-62.5-37.89,37.89Z"/>
  </g>
  <g>
    <path class="cls-2" d="M0,1341.93v33.07l24.61-24.61c-6.72-5.61-15.64-8.47-24.61-8.46Z"/>
    <path class="cls-1" d="M62.5,1312.5L0,1250v91.93c8.98-.01,17.89,2.85,24.61,8.46l37.89-37.89Z"/>
    <path class="cls-2" d="M125,1250h-33.07c-.01,8.98,2.85,17.89,8.46,24.61l24.61-24.61Z"/>
    <path class="cls-1" d="M100.39,1274.61c-5.61-6.72-8.47-15.64-8.46-24.61H0l62.5,62.5,37.89-37.89Z"/>
    <path class="cls-2" d="M250,1375v-33.07c-8.98-.01-17.89,2.85-24.61,8.46l24.61,24.61Z"/>
    <path class="cls-1" d="M225.39,1350.39c6.72-5.61,15.64-8.47,24.61-8.46v-91.93l-62.5,62.5,37.89,37.89Z"/>
    <path class="cls-2" d="M158.07,1250h-33.07l24.61,24.61c5.61-6.72,8.47-15.64,8.46-24.61Z"/>
    <path class="cls-1" d="M187.5,1312.5l62.5-62.5h-91.93c.01,8.98-2.85,17.89-8.46,24.61l37.89,37.89Z"/>
    <path class="cls-2" d="M125,1283.07c8.98,.01,17.89-2.85,24.61-8.46l-24.61-24.61-24.61,24.61c6.72,5.61,15.64,8.47,24.61,8.46Z"/>
    <path class="cls-1" d="M187.5,1312.5l-37.89-37.89c-6.72,5.61-15.64,8.47-24.61,8.46-8.98,.01-17.89-2.85-24.61-8.46l-37.89,37.89,62.5,62.5,62.5-62.5Z"/>
    <path class="cls-2" d="M125,1466.93c-8.98-.01-17.89,2.85-24.61,8.46l24.61,24.61,24.61-24.61c-6.72-5.61-15.64-8.47-24.61-8.46Z"/>
    <path class="cls-1" d="M125,1375l-62.5,62.5,37.89,37.89c6.72-5.61,15.64-8.47,24.61-8.46,8.98-.01,17.89,2.85,24.61,8.46l37.89-37.89-62.5-62.5Z"/>
    <path class="cls-2" d="M33.07,1375c.01-8.98-2.85-17.89-8.46-24.61l-24.61,24.61,24.61,24.61c5.61-6.72,8.47-15.64,8.46-24.61Z"/>
    <path class="cls-1" d="M62.5,1312.5l-37.89,37.89c5.61,6.72,8.47,15.64,8.46,24.61,.01,8.98-2.85,17.89-8.46,24.61l37.89,37.89,62.5-62.5-62.5-62.5Z"/>
    <path class="cls-2" d="M216.93,1375c-.01,8.98,2.85,17.89,8.46,24.61l24.61-24.61-24.61-24.61c-5.61,6.72-8.47,15.64-8.46,24.61Z"/>
    <path class="cls-1" d="M187.5,1437.5l37.89-37.89c-5.61-6.72-8.47-15.64-8.46-24.61-.01-8.98,2.85-17.89,8.46-24.61l-37.89-37.89-62.5,62.5,62.5,62.5Z"/>
    <path class="cls-2" d="M0,1375v33.07c8.98,.01,17.89-2.85,24.61-8.46l-24.61-24.61Z"/>
    <path class="cls-1" d="M24.61,1399.61c-6.72,5.61-15.64,8.47-24.61,8.46v91.93l62.5-62.5-37.89-37.89Z"/>
    <path class="cls-2" d="M91.93,1500h33.07l-24.61-24.61c-5.61,6.72-8.47,15.64-8.46,24.61Z"/>
    <path class="cls-1" d="M62.5,1437.5L0,1500H91.93c-.01-8.98,2.85-17.89,8.46-24.61l-37.89-37.89Z"/>
    <path class="cls-2" d="M250,1408.07v-33.07l-24.61,24.61c6.72,5.61,15.64,8.47,24.61,8.46Z"/>
    <path class="cls-1" d="M187.5,1437.5l62.5,62.5v-91.93c-8.98,.01-17.89-2.85-24.61-8.46l-37.89,37.89Z"/>
    <path class="cls-2" d="M149.61,1475.39l-24.61,24.61h33.07c.01-8.98-2.85-17.89-8.46-24.61Z"/>
    <path class="cls-1" d="M149.61,1475.39c5.61,6.72,8.47,15.64,8.46,24.61h91.93l-62.5-62.5-37.89,37.89Z"/>
  </g>
  <g>
    <path class="cls-2" d="M250,1341.93v33.07l24.61-24.61c-6.72-5.61-15.64-8.47-24.61-8.46Z"/>
    <path class="cls-1" d="M312.5,1312.5l-62.5-62.5v91.93c8.98-.01,17.89,2.85,24.61,8.46l37.89-37.89Z"/>
    <path class="cls-2" d="M375,1250h-33.07c-.01,8.98,2.85,17.89,8.46,24.61l24.61-24.61Z"/>
    <path class="cls-1" d="M350.39,1274.61c-5.61-6.72-8.47-15.64-8.46-24.61h-91.93l62.5,62.5,37.89-37.89Z"/>
    <path class="cls-2" d="M500,1375v-33.07c-8.98-.01-17.89,2.85-24.61,8.46l24.61,24.61Z"/>
    <path class="cls-1" d="M475.39,1350.39c6.72-5.61,15.64-8.47,24.61-8.46v-91.93l-62.5,62.5,37.89,37.89Z"/>
    <path class="cls-2" d="M408.07,1250h-33.07l24.61,24.61c5.61-6.72,8.47-15.64,8.46-24.61Z"/>
    <path class="cls-1" d="M437.5,1312.5l62.5-62.5h-91.93c.01,8.98-2.85,17.89-8.46,24.61l37.89,37.89Z"/>
    <path class="cls-2" d="M375,1283.07c8.98,.01,17.89-2.85,24.61-8.46l-24.61-24.61-24.61,24.61c6.72,5.61,15.64,8.47,24.61,8.46Z"/>
    <path class="cls-1" d="M437.5,1312.5l-37.89-37.89c-6.72,5.61-15.64,8.47-24.61,8.46-8.98,.01-17.89-2.85-24.61-8.46l-37.89,37.89,62.5,62.5,62.5-62.5Z"/>
    <path class="cls-2" d="M375,1466.93c-8.98-.01-17.89,2.85-24.61,8.46l24.61,24.61,24.61-24.61c-6.72-5.61-15.64-8.47-24.61-8.46Z"/>
    <path class="cls-1" d="M375,1375l-62.5,62.5,37.89,37.89c6.72-5.61,15.64-8.47,24.61-8.46,8.98-.01,17.89,2.85,24.61,8.46l37.89-37.89-62.5-62.5Z"/>
    <path class="cls-2" d="M283.07,1375c.01-8.98-2.85-17.89-8.46-24.61l-24.61,24.61,24.61,24.61c5.61-6.72,8.47-15.64,8.46-24.61Z"/>
    <path class="cls-1" d="M312.5,1312.5l-37.89,37.89c5.61,6.72,8.47,15.64,8.46,24.61,.01,8.98-2.85,17.89-8.46,24.61l37.89,37.89,62.5-62.5-62.5-62.5Z"/>
    <path class="cls-2" d="M466.93,1375c-.01,8.98,2.85,17.89,8.46,24.61l24.61-24.61-24.61-24.61c-5.61,6.72-8.47,15.64-8.46,24.61Z"/>
    <path class="cls-1" d="M437.5,1437.5l37.89-37.89c-5.61-6.72-8.47-15.64-8.46-24.61-.01-8.98,2.85-17.89,8.46-24.61l-37.89-37.89-62.5,62.5,62.5,62.5Z"/>
    <path class="cls-2" d="M250,1375v33.07c8.98,.01,17.89-2.85,24.61-8.46l-24.61-24.61Z"/>
    <path class="cls-1" d="M274.61,1399.61c-6.72,5.61-15.64,8.47-24.61,8.46v91.93l62.5-62.5-37.89-37.89Z"/>
    <path class="cls-2" d="M341.93,1500h33.07l-24.61-24.61c-5.61,6.72-8.47,15.64-8.46,24.61Z"/>
    <path class="cls-1" d="M312.5,1437.5l-62.5,62.5h91.93c-.01-8.98,2.85-17.89,8.46-24.61l-37.89-37.89Z"/>
    <path class="cls-2" d="M500,1408.07v-33.07l-24.61,24.61c6.72,5.61,15.64,8.47,24.61,8.46Z"/>
    <path class="cls-1" d="M437.5,1437.5l62.5,62.5v-91.93c-8.98,.01-17.89-2.85-24.61-8.46l-37.89,37.89Z"/>
    <path class="cls-2" d="M399.61,1475.39l-24.61,24.61h33.07c.01-8.98-2.85-17.89-8.46-24.61Z"/>
    <path class="cls-1" d="M399.61,1475.39c5.61,6.72,8.47,15.64,8.46,24.61h91.93l-62.5-62.5-37.89,37.89Z"/>
  </g>
  <g>
    <path class="cls-2" d="M0,1591.93v33.07l24.61-24.61c-6.72-5.61-15.64-8.47-24.61-8.46Z"/>
    <path class="cls-1" d="M62.5,1562.5L0,1500v91.93c8.98-.01,17.89,2.85,24.61,8.46l37.89-37.89Z"/>
    <path class="cls-2" d="M125,1500h-33.07c-.01,8.98,2.85,17.89,8.46,24.61l24.61-24.61Z"/>
    <path class="cls-1" d="M100.39,1524.61c-5.61-6.72-8.47-15.64-8.46-24.61H0l62.5,62.5,37.89-37.89Z"/>
    <path class="cls-2" d="M250,1625v-33.07c-8.98-.01-17.89,2.85-24.61,8.46l24.61,24.61Z"/>
    <path class="cls-1" d="M225.39,1600.39c6.72-5.61,15.64-8.47,24.61-8.46v-91.93l-62.5,62.5,37.89,37.89Z"/>
    <path class="cls-2" d="M158.07,1500h-33.07l24.61,24.61c5.61-6.72,8.47-15.64,8.46-24.61Z"/>
    <path class="cls-1" d="M187.5,1562.5l62.5-62.5h-91.93c.01,8.98-2.85,17.89-8.46,24.61l37.89,37.89Z"/>
    <path class="cls-2" d="M125,1533.07c8.98,.01,17.89-2.85,24.61-8.46l-24.61-24.61-24.61,24.61c6.72,5.61,15.64,8.47,24.61,8.46Z"/>
    <path class="cls-1" d="M187.5,1562.5l-37.89-37.89c-6.72,5.61-15.64,8.47-24.61,8.46-8.98,.01-17.89-2.85-24.61-8.46l-37.89,37.89,62.5,62.5,62.5-62.5Z"/>
    <path class="cls-2" d="M125,1716.93c-8.98-.01-17.89,2.85-24.61,8.46l24.61,24.61,24.61-24.61c-6.72-5.61-15.64-8.47-24.61-8.46Z"/>
    <path class="cls-1" d="M125,1625l-62.5,62.5,37.89,37.89c6.72-5.61,15.64-8.47,24.61-8.46,8.98-.01,17.89,2.85,24.61,8.46l37.89-37.89-62.5-62.5Z"/>
    <path class="cls-2" d="M33.07,1625c.01-8.98-2.85-17.89-8.46-24.61l-24.61,24.61,24.61,24.61c5.61-6.72,8.47-15.64,8.46-24.61Z"/>
    <path class="cls-1" d="M62.5,1562.5l-37.89,37.89c5.61,6.72,8.47,15.64,8.46,24.61,.01,8.98-2.85,17.89-8.46,24.61l37.89,37.89,62.5-62.5-62.5-62.5Z"/>
    <path class="cls-2" d="M216.93,1625c-.01,8.98,2.85,17.89,8.46,24.61l24.61-24.61-24.61-24.61c-5.61,6.72-8.47,15.64-8.46,24.61Z"/>
    <path class="cls-1" d="M187.5,1687.5l37.89-37.89c-5.61-6.72-8.47-15.64-8.46-24.61-.01-8.98,2.85-17.89,8.46-24.61l-37.89-37.89-62.5,62.5,62.5,62.5Z"/>
    <path class="cls-2" d="M0,1625v33.07c8.98,.01,17.89-2.85,24.61-8.46l-24.61-24.61Z"/>
    <path class="cls-1" d="M24.61,1649.61c-6.72,5.61-15.64,8.47-24.61,8.46v91.93l62.5-62.5-37.89-37.89Z"/>
    <path class="cls-2" d="M91.93,1750h33.07l-24.61-24.61c-5.61,6.72-8.47,15.64-8.46,24.61Z"/>
    <path class="cls-1" d="M62.5,1687.5L0,1750H91.93c-.01-8.98,2.85-17.89,8.46-24.61l-37.89-37.89Z"/>
    <path class="cls-2" d="M250,1658.07v-33.07l-24.61,24.61c6.72,5.61,15.64,8.47,24.61,8.46Z"/>
    <path class="cls-1" d="M187.5,1687.5l62.5,62.5v-91.93c-8.98,.01-17.89-2.85-24.61-8.46l-37.89,37.89Z"/>
    <path class="cls-2" d="M149.61,1725.39l-24.61,24.61h33.07c.01-8.98-2.85-17.89-8.46-24.61Z"/>
    <path class="cls-1" d="M149.61,1725.39c5.61,6.72,8.47,15.64,8.46,24.61h91.93l-62.5-62.5-37.89,37.89Z"/>
  </g>
  <g>
    <path class="cls-2" d="M250,1591.93v33.07l24.61-24.61c-6.72-5.61-15.64-8.47-24.61-8.46Z"/>
    <path class="cls-1" d="M312.5,1562.5l-62.5-62.5v91.93c8.98-.01,17.89,2.85,24.61,8.46l37.89-37.89Z"/>
    <path class="cls-2" d="M375,1500h-33.07c-.01,8.98,2.85,17.89,8.46,24.61l24.61-24.61Z"/>
    <path class="cls-1" d="M350.39,1524.61c-5.61-6.72-8.47-15.64-8.46-24.61h-91.93l62.5,62.5,37.89-37.89Z"/>
    <path class="cls-2" d="M500,1625v-33.07c-8.98-.01-17.89,2.85-24.61,8.46l24.61,24.61Z"/>
    <path class="cls-1" d="M475.39,1600.39c6.72-5.61,15.64-8.47,24.61-8.46v-91.93l-62.5,62.5,37.89,37.89Z"/>
    <path class="cls-2" d="M408.07,1500h-33.07l24.61,24.61c5.61-6.72,8.47-15.64,8.46-24.61Z"/>
    <path class="cls-1" d="M437.5,1562.5l62.5-62.5h-91.93c.01,8.98-2.85,17.89-8.46,24.61l37.89,37.89Z"/>
    <path class="cls-2" d="M375,1533.07c8.98,.01,17.89-2.85,24.61-8.46l-24.61-24.61-24.61,24.61c6.72,5.61,15.64,8.47,24.61,8.46Z"/>
    <path class="cls-1" d="M437.5,1562.5l-37.89-37.89c-6.72,5.61-15.64,8.47-24.61,8.46-8.98,.01-17.89-2.85-24.61-8.46l-37.89,37.89,62.5,62.5,62.5-62.5Z"/>
    <path class="cls-2" d="M375,1716.93c-8.98-.01-17.89,2.85-24.61,8.46l24.61,24.61,24.61-24.61c-6.72-5.61-15.64-8.47-24.61-8.46Z"/>
    <path class="cls-1" d="M375,1625l-62.5,62.5,37.89,37.89c6.72-5.61,15.64-8.47,24.61-8.46,8.98-.01,17.89,2.85,24.61,8.46l37.89-37.89-62.5-62.5Z"/>
    <path class="cls-2" d="M283.07,1625c.01-8.98-2.85-17.89-8.46-24.61l-24.61,24.61,24.61,24.61c5.61-6.72,8.47-15.64,8.46-24.61Z"/>
    <path class="cls-1" d="M312.5,1562.5l-37.89,37.89c5.61,6.72,8.47,15.64,8.46,24.61,.01,8.98-2.85,17.89-8.46,24.61l37.89,37.89,62.5-62.5-62.5-62.5Z"/>
    <path class="cls-2" d="M466.93,1625c-.01,8.98,2.85,17.89,8.46,24.61l24.61-24.61-24.61-24.61c-5.61,6.72-8.47,15.64-8.46,24.61Z"/>
    <path class="cls-1" d="M437.5,1687.5l37.89-37.89c-5.61-6.72-8.47-15.64-8.46-24.61-.01-8.98,2.85-17.89,8.46-24.61l-37.89-37.89-62.5,62.5,62.5,62.5Z"/>
    <path class="cls-2" d="M250,1625v33.07c8.98,.01,17.89-2.85,24.61-8.46l-24.61-24.61Z"/>
    <path class="cls-1" d="M274.61,1649.61c-6.72,5.61-15.64,8.47-24.61,8.46v91.93l62.5-62.5-37.89-37.89Z"/>
    <path class="cls-2" d="M341.93,1750h33.07l-24.61-24.61c-5.61,6.72-8.47,15.64-8.46,24.61Z"/>
    <path class="cls-1" d="M312.5,1687.5l-62.5,62.5h91.93c-.01-8.98,2.85-17.89,8.46-24.61l-37.89-37.89Z"/>
    <path class="cls-2" d="M500,1658.07v-33.07l-24.61,24.61c6.72,5.61,15.64,8.47,24.61,8.46Z"/>
    <path class="cls-1" d="M437.5,1687.5l62.5,62.5v-91.93c-8.98,.01-17.89-2.85-24.61-8.46l-37.89,37.89Z"/>
    <path class="cls-2" d="M399.61,1725.39l-24.61,24.61h33.07c.01-8.98-2.85-17.89-8.46-24.61Z"/>
    <path class="cls-1" d="M399.61,1725.39c5.61,6.72,8.47,15.64,8.46,24.61h91.93l-62.5-62.5-37.89,37.89Z"/>
  </g>
  <g>
    <path class="cls-2" d="M0,1841.93v33.07l24.61-24.61c-6.72-5.61-15.64-8.47-24.61-8.46Z"/>
    <path class="cls-1" d="M62.5,1812.5L0,1750v91.93c8.98-.01,17.89,2.85,24.61,8.46l37.89-37.89Z"/>
    <path class="cls-2" d="M125,1750h-33.07c-.01,8.98,2.85,17.89,8.46,24.61l24.61-24.61Z"/>
    <path class="cls-1" d="M100.39,1774.61c-5.61-6.72-8.47-15.64-8.46-24.61H0l62.5,62.5,37.89-37.89Z"/>
    <path class="cls-2" d="M250,1875v-33.07c-8.98-.01-17.89,2.85-24.61,8.46l24.61,24.61Z"/>
    <path class="cls-1" d="M225.39,1850.39c6.72-5.61,15.64-8.47,24.61-8.46v-91.93l-62.5,62.5,37.89,37.89Z"/>
    <path class="cls-2" d="M158.07,1750h-33.07l24.61,24.61c5.61-6.72,8.47-15.64,8.46-24.61Z"/>
    <path class="cls-1" d="M187.5,1812.5l62.5-62.5h-91.93c.01,8.98-2.85,17.89-8.46,24.61l37.89,37.89Z"/>
    <path class="cls-2" d="M125,1783.07c8.98,.01,17.89-2.85,24.61-8.46l-24.61-24.61-24.61,24.61c6.72,5.61,15.64,8.47,24.61,8.46Z"/>
    <path class="cls-1" d="M187.5,1812.5l-37.89-37.89c-6.72,5.61-15.64,8.47-24.61,8.46-8.98,.01-17.89-2.85-24.61-8.46l-37.89,37.89,62.5,62.5,62.5-62.5Z"/>
    <path class="cls-2" d="M125,1966.93c-8.98-.01-17.89,2.85-24.61,8.46l24.61,24.61,24.61-24.61c-6.72-5.61-15.64-8.47-24.61-8.46Z"/>
    <path class="cls-1" d="M125,1875l-62.5,62.5,37.89,37.89c6.72-5.61,15.64-8.47,24.61-8.46,8.98-.01,17.89,2.85,24.61,8.46l37.89-37.89-62.5-62.5Z"/>
    <path class="cls-2" d="M33.07,1875c.01-8.98-2.85-17.89-8.46-24.61l-24.61,24.61,24.61,24.61c5.61-6.72,8.47-15.64,8.46-24.61Z"/>
    <path class="cls-1" d="M62.5,1812.5l-37.89,37.89c5.61,6.72,8.47,15.64,8.46,24.61,.01,8.98-2.85,17.89-8.46,24.61l37.89,37.89,62.5-62.5-62.5-62.5Z"/>
    <path class="cls-2" d="M216.93,1875c-.01,8.98,2.85,17.89,8.46,24.61l24.61-24.61-24.61-24.61c-5.61,6.72-8.47,15.64-8.46,24.61Z"/>
    <path class="cls-1" d="M187.5,1937.5l37.89-37.89c-5.61-6.72-8.47-15.64-8.46-24.61-.01-8.98,2.85-17.89,8.46-24.61l-37.89-37.89-62.5,62.5,62.5,62.5Z"/>
    <path class="cls-2" d="M0,1875v33.07c8.98,.01,17.89-2.85,24.61-8.46l-24.61-24.61Z"/>
    <path class="cls-1" d="M24.61,1899.61c-6.72,5.61-15.64,8.47-24.61,8.46v91.93l62.5-62.5-37.89-37.89Z"/>
    <path class="cls-2" d="M91.93,2000h33.07l-24.61-24.61c-5.61,6.72-8.47,15.64-8.46,24.61Z"/>
    <path class="cls-1" d="M62.5,1937.5L0,2000H91.93c-.01-8.98,2.85-17.89,8.46-24.61l-37.89-37.89Z"/>
    <path class="cls-2" d="M250,1908.07v-33.07l-24.61,24.61c6.72,5.61,15.64,8.47,24.61,8.46Z"/>
    <path class="cls-1" d="M187.5,1937.5l62.5,62.5v-91.93c-8.98,.01-17.89-2.85-24.61-8.46l-37.89,37.89Z"/>
    <path class="cls-2" d="M149.61,1975.39l-24.61,24.61h33.07c.01-8.98-2.85-17.89-8.46-24.61Z"/>
    <path class="cls-1" d="M149.61,1975.39c5.61,6.72,8.47,15.64,8.46,24.61h91.93l-62.5-62.5-37.89,37.89Z"/>
  </g>
  <g>
    <path class="cls-2" d="M250,1841.93v33.07l24.61-24.61c-6.72-5.61-15.64-8.47-24.61-8.46Z"/>
    <path class="cls-1" d="M312.5,1812.5l-62.5-62.5v91.93c8.98-.01,17.89,2.85,24.61,8.46l37.89-37.89Z"/>
    <path class="cls-2" d="M375,1750h-33.07c-.01,8.98,2.85,17.89,8.46,24.61l24.61-24.61Z"/>
    <path class="cls-1" d="M350.39,1774.61c-5.61-6.72-8.47-15.64-8.46-24.61h-91.93l62.5,62.5,37.89-37.89Z"/>
    <path class="cls-2" d="M500,1875v-33.07c-8.98-.01-17.89,2.85-24.61,8.46l24.61,24.61Z"/>
    <path class="cls-1" d="M475.39,1850.39c6.72-5.61,15.64-8.47,24.61-8.46v-91.93l-62.5,62.5,37.89,37.89Z"/>
    <path class="cls-2" d="M408.07,1750h-33.07l24.61,24.61c5.61-6.72,8.47-15.64,8.46-24.61Z"/>
    <path class="cls-1" d="M437.5,1812.5l62.5-62.5h-91.93c.01,8.98-2.85,17.89-8.46,24.61l37.89,37.89Z"/>
    <path class="cls-2" d="M375,1783.07c8.98,.01,17.89-2.85,24.61-8.46l-24.61-24.61-24.61,24.61c6.72,5.61,15.64,8.47,24.61,8.46Z"/>
    <path class="cls-1" d="M437.5,1812.5l-37.89-37.89c-6.72,5.61-15.64,8.47-24.61,8.46-8.98,.01-17.89-2.85-24.61-8.46l-37.89,37.89,62.5,62.5,62.5-62.5Z"/>
    <path class="cls-2" d="M375,1966.93c-8.98-.01-17.89,2.85-24.61,8.46l24.61,24.61,24.61-24.61c-6.72-5.61-15.64-8.47-24.61-8.46Z"/>
    <path class="cls-1" d="M375,1875l-62.5,62.5,37.89,37.89c6.72-5.61,15.64-8.47,24.61-8.46,8.98-.01,17.89,2.85,24.61,8.46l37.89-37.89-62.5-62.5Z"/>
    <path class="cls-2" d="M283.07,1875c.01-8.98-2.85-17.89-8.46-24.61l-24.61,24.61,24.61,24.61c5.61-6.72,8.47-15.64,8.46-24.61Z"/>
    <path class="cls-1" d="M312.5,1812.5l-37.89,37.89c5.61,6.72,8.47,15.64,8.46,24.61,.01,8.98-2.85,17.89-8.46,24.61l37.89,37.89,62.5-62.5-62.5-62.5Z"/>
    <path class="cls-2" d="M466.93,1875c-.01,8.98,2.85,17.89,8.46,24.61l24.61-24.61-24.61-24.61c-5.61,6.72-8.47,15.64-8.46,24.61Z"/>
    <path class="cls-1" d="M437.5,1937.5l37.89-37.89c-5.61-6.72-8.47-15.64-8.46-24.61-.01-8.98,2.85-17.89,8.46-24.61l-37.89-37.89-62.5,62.5,62.5,62.5Z"/>
    <path class="cls-2" d="M250,1875v33.07c8.98,.01,17.89-2.85,24.61-8.46l-24.61-24.61Z"/>
    <path class="cls-1" d="M274.61,1899.61c-6.72,5.61-15.64,8.47-24.61,8.46v91.93l62.5-62.5-37.89-37.89Z"/>
    <path class="cls-2" d="M341.93,2000h33.07l-24.61-24.61c-5.61,6.72-8.47,15.64-8.46,24.61Z"/>
    <path class="cls-1" d="M312.5,1937.5l-62.5,62.5h91.93c-.01-8.98,2.85-17.89,8.46-24.61l-37.89-37.89Z"/>
    <path class="cls-2" d="M500,1908.07v-33.07l-24.61,24.61c6.72,5.61,15.64,8.47,24.61,8.46Z"/>
    <path class="cls-1" d="M437.5,1937.5l62.5,62.5v-91.93c-8.98,.01-17.89-2.85-24.61-8.46l-37.89,37.89Z"/>
    <path class="cls-2" d="M399.61,1975.39l-24.61,24.61h33.07c.01-8.98-2.85-17.89-8.46-24.61Z"/>
    <path class="cls-1" d="M399.61,1975.39c5.61,6.72,8.47,15.64,8.46,24.61h91.93l-62.5-62.5-37.89,37.89Z"/>
  </g>
</svg>